<?xml version="1.0" encoding="UTF-8"?>
<svg version="1.1" xmlns="http://www.w3.org/2000/svg" width="905" height="275">
<path d="M0 0 C0.87362686 0.00792068 1.74725372 0.01584137 2.64735413 0.02400208 C3.63606003 0.03118759 4.62476593 0.03837311 5.64343262 0.04577637 C7.26197899 0.06750664 7.26197899 0.06750664 8.91322327 0.0896759 C10.02008987 0.1038002 11.12695648 0.1179245 12.2673645 0.13247681 C14.62047268 0.16568297 16.97353798 0.20205163 19.32655334 0.24128723 C22.90169415 0.29599279 26.47646294 0.32491049 30.05189514 0.35334778 C32.33903007 0.38884726 34.62614139 0.42590865 36.91322327 0.4646759 C38.50444252 0.47122444 38.50444252 0.47122444 40.12780762 0.47790527 C50.29144565 0.70720794 59.71786142 3.73810535 67.01087952 11.10920715 C74.20494956 21.01476765 74.98489271 30.1642889 74.01087952 42.10920715 C72.50034726 50.19103581 68.68219036 56.23602306 62.01087952 61.10920715 C60.68681658 61.4776447 59.3537188 61.81651015 58.01087952 62.10920715 C60.37259876 66.59559718 62.7388459 71.07955778 65.10926819 75.56135559 C65.91454572 77.08544008 66.71859552 78.61017393 67.52137756 80.13557434 C68.67739134 82.33164261 69.83784178 84.52531574 70.99916077 86.71858215 C71.35553116 87.39789795 71.71190155 88.07721375 72.07907104 88.77711487 C73.51294185 91.47669025 74.91490892 93.98882718 76.82411194 96.38362122 C77.21574524 96.95306458 77.60737854 97.52250793 78.01087952 98.10920715 C77.51587952 99.59420715 77.51587952 99.59420715 77.01087952 101.10920715 C64.14087952 100.61420715 64.14087952 100.61420715 51.01087952 100.10920715 C45.26087952 89.04670715 45.26087952 89.04670715 43.47279358 85.60115051 C41.25961199 81.35149815 39.04932533 77.11903322 36.62025452 72.9881134 C35.01087952 70.10920715 35.01087952 70.10920715 35.01087952 68.10920715 C30.39087952 68.10920715 25.77087952 68.10920715 21.01087952 68.10920715 C21.01087952 78.66920715 21.01087952 89.22920715 21.01087952 100.10920715 C13.09087952 100.10920715 5.17087952 100.10920715 -2.98912048 100.10920715 C-3.01166945 87.21848149 -3.03003438 74.32776882 -3.04093266 61.43702793 C-3.04616199 55.45201449 -3.05326056 49.46701519 -3.06455994 43.48200989 C-3.07538701 37.71137286 -3.08139693 31.94074947 -3.08399773 26.17010307 C-3.0858523 23.96317772 -3.08947353 21.75625315 -3.09485054 19.54933357 C-3.10205859 16.46974674 -3.10311153 13.39021701 -3.10264587 10.31062317 C-3.10624115 9.38849533 -3.10983643 8.46636749 -3.11354065 7.51629639 C-3.10143782 0.17027586 -3.10143782 0.17027586 0 0 Z M21.01087952 21.10920715 C21.01087952 29.68920715 21.01087952 38.26920715 21.01087952 47.10920715 C24.86775452 47.04733215 28.72462952 46.98545715 32.69837952 46.92170715 C33.90582825 46.91502014 35.11327698 46.90833313 36.35731506 46.90144348 C42.86690368 46.88898345 42.86690368 46.88898345 48.22962952 43.6756134 C51.34597203 39.18561991 51.29734133 35.55198165 51.01087952 30.10920715 C50.47346569 27.22060781 49.89922014 25.74436502 47.48353577 24.01716614 C41.74946385 20.90461457 36.94368607 20.61803027 30.51087952 20.85920715 C25.80837952 20.98295715 25.80837952 20.98295715 21.01087952 21.10920715 Z " fill="#FC630C" transform="translate(94.98912048339844,64.89079284667969)"/>
<path d="M0 0 C1.084021 0.00523682 2.16804199 0.01047363 3.28491211 0.01586914 C4.45473633 0.0190918 5.62456055 0.02231445 6.82983398 0.02563477 C8.0615332 0.03401367 9.29323242 0.04239258 10.56225586 0.05102539 C12.41560547 0.05779297 12.41560547 0.05779297 14.30639648 0.06469727 C17.37089703 0.07652931 20.43530307 0.09301366 23.49975586 0.11352539 C30.11994281 16.47895648 36.50795444 32.93375794 42.89154053 49.39247131 C44.38442352 53.24140137 45.87916718 57.08959339 47.37719727 60.93652344 C47.68733261 61.73311371 47.99746796 62.52970398 48.31700134 63.35043335 C48.90374304 64.85716415 49.49076556 66.36378563 50.07814026 67.87026978 C54.10608249 78.21523829 57.98807424 88.57848054 61.49975586 99.11352539 C52.58975586 99.11352539 43.67975586 99.11352539 34.49975586 99.11352539 C33.50975586 96.51477539 32.51975586 93.91602539 31.49975586 91.23852539 C31.18651367 90.4214209 30.87327148 89.60431641 30.55053711 88.76245117 C28.49975586 83.33574761 28.49975586 83.33574761 28.49975586 81.11352539 C16.28975586 81.11352539 4.07975586 81.11352539 -8.50024414 81.11352539 C-9.49024414 84.41352539 -10.48024414 87.71352539 -11.50024414 91.11352539 C-12.49024414 93.75352539 -13.48024414 96.39352539 -14.50024414 99.11352539 C-23.41024414 99.11352539 -32.32024414 99.11352539 -41.50024414 99.11352539 C-39.73040576 93.21406414 -38.11622989 87.84873424 -35.81274414 82.23852539 C-35.27610549 80.91958833 -34.73965653 79.60057407 -34.20336914 78.28149414 C-33.92299805 77.59619629 -33.64262695 76.91089844 -33.35375977 76.20483398 C-31.9070709 72.66011522 -30.48482872 69.10567207 -29.06274414 65.55102539 C-28.74490967 64.75752686 -28.4270752 63.96402832 -28.09960938 63.14648438 C-23.67916462 52.08975372 -19.3210738 41.00819343 -14.95556641 29.9296875 C-13.43302238 26.06636318 -11.90797279 22.20403686 -10.38098145 18.34246826 C-9.79035633 16.84773238 -9.20060383 15.35265142 -8.61169434 13.85723877 C-7.77753731 11.73985754 -6.94009357 9.62380557 -6.10180664 7.50805664 C-5.62308105 6.29609619 -5.14435547 5.08413574 -4.65112305 3.83544922 C-3.0887238 0.14024573 -3.0887238 0.14024573 0 0 Z M9.49975586 28.11352539 C8.23043771 31.84690405 6.96723258 35.58229114 5.70947266 39.31958008 C5.07177523 41.21030123 4.42935531 43.09942746 3.78686523 44.98852539 C3.18261719 46.78676758 3.18261719 46.78676758 2.56616211 48.62133789 C2.19434814 49.72106934 1.82253418 50.82080078 1.43945312 51.95385742 C0.30108166 55.54332349 0.30108166 55.54332349 -0.50024414 61.11352539 C6.42975586 61.11352539 13.35975586 61.11352539 20.49975586 61.11352539 C19.70427045 55.25096483 19.70427045 55.25096483 18.19506836 49.77368164 C17.94112305 49.02022461 17.68717773 48.26676758 17.42553711 47.49047852 C17.1612793 46.72670898 16.89702148 45.96293945 16.62475586 45.17602539 C16.36823242 44.41612305 16.11170898 43.6562207 15.84741211 42.87329102 C14.16218505 37.91499732 12.3598259 33.00873965 10.49975586 28.11352539 C10.16975586 28.11352539 9.83975586 28.11352539 9.49975586 28.11352539 Z " fill="#0158A9" transform="translate(404.500244140625,65.886474609375)"/>
<path d="M0 0 C7.59 0 15.18 0 23 0 C23 33 23 66 23 100 C15.74 100 8.48 100 1 100 C0.67 98.02 0.34 96.04 0 94 C-0.78375 94.763125 -1.5675 95.52625 -2.375 96.3125 C-7.93507955 100.91755412 -15.37792792 102.6558439 -22.51953125 102.33984375 C-32.42051316 100.98333127 -40.61592129 97.90287163 -47 90 C-54.34319948 78.51042495 -56.7422208 66.3467242 -53.875 53.0625 C-51.4160468 44.04250814 -46.9722386 36.15850733 -39 31 C-30.48768404 26.44349352 -21.5402562 24.1960862 -12.01171875 26.82421875 C-8.01514066 28.24816512 -4.54008238 29.63994508 -1 32 C-0.67 21.44 -0.34 10.88 0 0 Z M-27 51 C-30.67484127 57.08249589 -32.12714751 62.97559667 -30.5390625 70.0546875 C-28.84461095 75.3373894 -26.51623685 77.82902519 -22 81 C-18.04851126 82.97574437 -13.30685543 82.43190217 -9 82 C-3.90946761 79.63653854 -2.11910077 77.09795099 0 72 C0.47059665 68.54942587 0.47059665 68.54942587 0.375 65 C0.38273438 63.824375 0.39046875 62.64875 0.3984375 61.4375 C-0.26249711 55.73531908 -2.63573491 51.68234867 -7 48 C-14.00665595 45.66444802 -21.47264699 45.74901464 -27 51 Z " fill="#0158AA" transform="translate(598,65)"/>
<path d="M0 0 C7.59 0 15.18 0 23 0 C23 33 23 66 23 100 C12.605 100.495 12.605 100.495 2 101 C1.505 97.535 1.505 97.535 1 94 C0.21625 94.763125 -0.5675 95.52625 -1.375 96.3125 C-7.26555915 101.17981648 -14.9254832 102.64143183 -22.43359375 102.3359375 C-32.35812256 101.03683632 -39.40052966 96.39977924 -46 89 C-51.65988351 81.18621637 -54.17069825 69.50796822 -53 60 C-50.90607454 48.57445022 -47.47482049 39.22185015 -38 32 C-29.90434047 27.49497734 -21.12756826 24.77088613 -11.875 26.625 C-8 28 -8 28 0 33 C0 22.11 0 11.22 0 0 Z M-27.375 54 C-29.96663971 59.0206242 -29.61865909 64.51608361 -29 70 C-27.26384225 75.30492646 -24.3547618 77.75709228 -20 81 C-16.31338558 82.84330721 -12.03279906 82.35620938 -8 82 C-4.25275145 80.40542615 -2.04885995 78.51233134 0 75 C2.62926676 67.66572958 2.74111952 61.35983983 0.01953125 54.08984375 C-1.65904428 50.64908547 -3.47876685 48.42771246 -7 47 C-15.88249928 45.63533619 -21.67180259 46.79596117 -27.375 54 Z " fill="#FC630C" transform="translate(260,65)"/>
<path d="M0 0 C7.59 0 15.18 0 23 0 C23.33 10.89 23.66 21.78 24 33 C26.31 31.35 28.62 29.7 31 28 C39.54312151 24.73808088 46.788916 25.46785772 55 29 C61.1110799 32.23527759 65.35528288 36.87840945 67.92211914 43.31079102 C70.54821614 52.67109375 70.38750385 61.93656477 70.28125 71.57495117 C70.24980134 74.45569726 70.24023794 77.33589519 70.234375 80.21679688 C70.22521393 82.0599025 70.21484103 83.90300259 70.203125 85.74609375 C70.19887512 86.6013414 70.19462524 87.45658905 70.19024658 88.3377533 C70.18063904 89.13951492 70.17103149 89.94127655 70.16113281 90.76733398 C70.15430481 91.46616196 70.14747681 92.16498993 70.14044189 92.88499451 C70 95 70 95 69 100 C61.41 100 53.82 100 46 100 C45.93941406 96.80957031 45.87882813 93.61914062 45.81640625 90.33203125 C45.75457436 87.23752574 45.69120426 84.14305528 45.62768555 81.04858398 C45.58440948 78.9001783 45.54272927 76.75173985 45.50268555 74.60327148 C45.4448054 71.51275768 45.38116208 68.4224077 45.31640625 65.33203125 C45.29133751 63.89426079 45.29133751 63.89426079 45.26576233 62.42744446 C45.2358445 61.07661018 45.2358445 61.07661018 45.20532227 59.69848633 C45.18200584 58.51601067 45.18200584 58.51601067 45.15821838 57.30964661 C44.98479905 54.77809895 44.66013299 52.45203231 44 50 C40.06489066 47.49583951 35.52743369 47.41344989 31 48 C27.96079742 49.2553228 26.49883708 50.10717624 24.89306641 52.98120117 C23.60033462 57.35097386 23.64187684 61.57739106 23.5859375 66.11328125 C23.56657135 67.08283249 23.5472052 68.05238373 23.5272522 69.05131531 C23.46762564 72.13828828 23.4211386 75.22529888 23.375 78.3125 C23.33680466 80.40952118 23.29775202 82.50652694 23.2578125 84.60351562 C23.16032939 89.73559536 23.08062602 94.86751709 23 100 C15.41 100 7.82 100 0 100 C0 67 0 34 0 0 Z " fill="#0157A9" transform="translate(631,65)"/>
<path d="M0 0 C7.5591819 6.00334197 10.62756385 12.12660312 12.87890625 21.4921875 C12.87890625 26.7721875 12.87890625 32.0521875 12.87890625 37.4921875 C-2.96109375 37.4921875 -18.80109375 37.4921875 -35.12109375 37.4921875 C-31.81875552 44.2068726 -31.81875552 44.2068726 -26.12109375 48.4921875 C-19.74965217 50.20595809 -14.92643932 49.77823216 -9.12109375 46.4921875 C-6.71728505 44.89753488 -4.42575619 43.23244281 -2.12109375 41.4921875 C0.05790539 43.06058798 2.22107869 44.64512594 4.37890625 46.2421875 C5.30896484 46.90734375 5.30896484 46.90734375 6.2578125 47.5859375 C8.03515625 48.9140625 8.03515625 48.9140625 10.87890625 51.4921875 C10.87890625 55.4921875 10.87890625 55.4921875 9.0859375 57.52734375 C7.90064453 58.53087891 7.90064453 58.53087891 6.69140625 59.5546875 C5.91410156 60.22628906 5.13679688 60.89789063 4.3359375 61.58984375 C-4.29209049 68.27004984 -15.30216228 70.66451754 -26.12109375 69.4921875 C-36.20312642 68.1062477 -44.6293463 64.19395671 -51.03515625 56.0625 C-52.5947338 53.59636998 -53.89576071 51.13874015 -55.12109375 48.4921875 C-55.45882813 47.80769531 -55.7965625 47.12320313 -56.14453125 46.41796875 C-59.74081932 37.75718325 -59.44907707 26.339504 -56.49609375 17.5546875 C-52.36917896 7.89131309 -46.97865305 0.37187145 -37.05859375 -3.7578125 C-24.58533803 -8.56582892 -11.15448698 -7.61659919 0 0 Z M-32.12109375 16.4921875 C-34.39844385 19.30728743 -34.39844385 19.30728743 -34.12109375 22.4921875 C-25.87109375 22.4921875 -17.62109375 22.4921875 -9.12109375 22.4921875 C-11.0713663 15.97733701 -11.0713663 15.97733701 -16.12109375 12.4921875 C-22.53316944 11.44313338 -27.10631382 12.10425506 -32.12109375 16.4921875 Z " fill="#FA630E" transform="translate(348.12109375,97.5078125)"/>
<path d="M0 0 C6.59874472 5.95496475 10.43594965 13.54983112 11.5625 22.3125 C11.69442118 25.86263246 11.67895567 29.40878198 11.66015625 32.9609375 C11.6587413 33.97346588 11.65732635 34.98599426 11.65586853 36.02920532 C11.65029143 39.24866751 11.63774312 42.46805899 11.625 45.6875 C11.61998204 47.87630108 11.61541965 50.06510325 11.61132812 52.25390625 C11.60118235 57.60681969 11.58160241 62.95958112 11.5625 68.3125 C4.3025 68.3125 -2.9575 68.3125 -10.4375 68.3125 C-10.7675 66.9925 -11.0975 65.6725 -11.4375 64.3125 C-12.241875 64.93125 -13.04625 65.55 -13.875 66.1875 C-20.35040867 70.49425766 -28.6012392 71.21885634 -36.10546875 69.8125 C-43.84603955 67.97398386 -47.95817925 65.66293345 -52.75 59.1875 C-56.54821389 52.71646892 -56.08914982 45.57915324 -55.4375 38.3125 C-53.59246651 32.59634486 -49.80790655 29.3784622 -44.79296875 26.3203125 C-37.49675476 23.1985493 -30.26603412 22.92264996 -22.4375 22.6875 C-21.37660156 22.64882812 -20.31570313 22.61015625 -19.22265625 22.5703125 C-16.62776933 22.47680306 -14.03287551 22.39105098 -11.4375 22.3125 C-13.43353832 18.60235654 -13.43353832 18.60235654 -16.625 16 C-23.13948961 14.40756921 -28.11629586 15.23299496 -34.26171875 17.55859375 C-36.63111155 18.37958623 -38.97231205 18.86781636 -41.4375 19.3125 C-42.97448023 17.40700404 -44.49141254 15.49026407 -46 13.5625 C-46.43763672 13.02367188 -46.87527344 12.48484375 -47.32617188 11.9296875 C-50.46382127 7.87791978 -50.46382127 7.87791978 -50.33203125 5.046875 C-47.51052292 -0.42364771 -41.52036037 -2.01921852 -36.06640625 -3.87109375 C-23.57041766 -7.75172022 -11.61314823 -5.70100004 0 0 Z M-32.4375 41.3125 C-33.87485246 44.18720493 -33.81922649 46.13144588 -33.4375 49.3125 C-31.3022601 51.92989085 -29.66335612 53.09166563 -26.3125 53.6953125 C-22.24862194 53.90125227 -19.77320564 53.47413605 -16.0625 51.6875 C-13.13496805 49.03878062 -11.79538918 47.00897609 -10.4375 43.3125 C-10.39397349 41.6464018 -10.38676211 39.97839419 -10.4375 38.3125 C-21.88769852 37.58707458 -21.88769852 37.58707458 -32.4375 41.3125 Z " fill="#0158AA" transform="translate(808.4375,96.6875)"/>
<path d="M0 0 C5.35700216 4.32680944 8.30676683 10.77310506 9.6875 17.4375 C9.77258333 19.14771712 9.80526382 20.86091518 9.80102539 22.57324219 C9.80091209 24.10437653 9.80091209 24.10437653 9.80079651 25.66644287 C9.79563522 26.76136047 9.79047394 27.85627808 9.78515625 28.984375 C9.7837413 30.1107135 9.78232635 31.237052 9.78086853 32.39752197 C9.77527199 35.99420835 9.7627201 39.59083244 9.75 43.1875 C9.74498455 45.62630118 9.74042172 48.06510334 9.73632812 50.50390625 C9.72615469 56.48181413 9.70657844 62.45958735 9.6875 68.4375 C2.0975 68.4375 -5.4925 68.4375 -13.3125 68.4375 C-13.33828125 65.25867188 -13.3640625 62.07984375 -13.390625 58.8046875 C-13.42906748 55.71670784 -13.47422072 52.62889391 -13.52001953 49.54101562 C-13.54819744 47.39949491 -13.56942775 45.25787082 -13.58349609 43.11621094 C-13.60496925 40.03266593 -13.65164317 36.95035982 -13.703125 33.8671875 C-13.70435364 32.91383514 -13.70558228 31.96048279 -13.70684814 30.97824097 C-13.83362655 25.18871514 -14.48123461 21.86308663 -18.3125 17.4375 C-20.65187907 16.26781047 -22.08619368 16.30385779 -24.6875 16.3125 C-25.45835937 16.30992188 -26.22921875 16.30734375 -27.0234375 16.3046875 C-30.27527341 16.42565637 -30.27527341 16.42565637 -33.3125 17.4375 C-35.74360709 22.80119815 -35.65659707 28.09275217 -35.7265625 33.8671875 C-35.74592865 34.85751984 -35.7652948 35.84785217 -35.7852478 36.86819458 C-35.84479553 40.0162101 -35.8913297 43.16426268 -35.9375 46.3125 C-35.9757026 48.45314052 -36.01475565 50.59376604 -36.0546875 52.734375 C-36.15206973 57.96866982 -36.23183574 63.20281425 -36.3125 68.4375 C-43.9025 68.4375 -51.4925 68.4375 -59.3125 68.4375 C-59.3125 44.6775 -59.3125 20.9175 -59.3125 -3.5625 C-52.0525 -3.5625 -44.7925 -3.5625 -37.3125 -3.5625 C-36.9825 -1.9125 -36.6525 -0.2625 -36.3125 1.4375 C-35.81621094 1.09976563 -35.31992187 0.76203125 -34.80859375 0.4140625 C-23.50015842 -7.01045102 -11.47139283 -7.64038051 0 0 Z " fill="#0157A9" transform="translate(528.3125,96.5625)"/>
<path d="M0 0 C0 7.26 0 14.52 0 22 C-4.95 23.485 -4.95 23.485 -10 25 C-14.562102 27.717848 -16.45284623 31.02287023 -18 36 C-18.42643629 38.92906656 -18.48728151 41.82036086 -18.51171875 44.77734375 C-18.52966995 45.58869278 -18.54762115 46.40004181 -18.56611633 47.23597717 C-18.61988463 49.80310008 -18.65400616 52.3700407 -18.6875 54.9375 C-18.72070276 56.68817623 -18.75519513 58.4388285 -18.79101562 60.18945312 C-18.87799751 64.45965676 -18.93834875 68.72905664 -19 73 C-26.92 73 -34.84 73 -43 73 C-43 49.24 -43 25.48 -43 1 C-36.07 1 -29.14 1 -22 1 C-21.67 3.31 -21.34 5.62 -21 8 C-20.154375 7.236875 -19.30875 6.47375 -18.4375 5.6875 C-12.36237434 0.67943389 -8.03577374 0 0 0 Z M-23 9 C-22 11 -22 11 -22 11 Z " fill="#0156A8" transform="translate(753,92)"/>
<path d="M0 0 C7.59 0 15.18 0 23 0 C23 23.76 23 47.52 23 72 C15.41 72 7.82 72 0 72 C0 48.24 0 24.48 0 0 Z " fill="#FA630E" transform="translate(178,93)"/>
<path d="M0 0 C1.46156415 0.02009023 2.92315486 0.03833656 4.38476562 0.0546875 C7.94456774 0.09849664 11.50336254 0.16738454 15.0625 0.25 C16.0625 3.25 16.0625 3.25 15.125 5.4375 C14.774375 6.035625 14.42375 6.63375 14.0625 7.25 C13.134375 7.20875 12.20625 7.1675 11.25 7.125 C7.90440281 6.97863661 7.90440281 6.97863661 5.0625 9.25 C2.06917261 8.2522242 1.11483685 7.4977975 -0.9375 5.25 C-0.9375 5.91 -0.9375 6.57 -0.9375 7.25 C-0.2775 7.58 0.3825 7.91 1.0625 8.25 C1.0625 9.24 1.0625 10.23 1.0625 11.25 C-1.5775 11.25 -4.2175 11.25 -6.9375 11.25 C-9.28146354 14.91244303 -9.46262999 17.97394153 -8.9375 22.25 C-6.20261212 26.21999853 -3.69129629 27.52536015 0.875 28.5625 C2.26767508 28.81013717 3.66281261 29.04568833 5.0625 29.25 C3.875 31.75 3.875 31.75 2.0625 34.25 C-0.625 34.5625 -0.625 34.5625 -2.9375 34.25 C-2.9375 36.23 -2.9375 38.21 -2.9375 40.25 C-10.9884965 40.67959863 -15.39245174 39.68287625 -22.125 35.0625 C-27.11449042 30.07300958 -28.10428674 25.20363454 -28.4375 18.25 C-28.27271751 12.57575085 -27.0843558 8.26014627 -22.9375 4.25 C-16.1864483 -1.28429238 -8.27807855 -0.19791955 0 0 Z " fill="#0258AA" transform="translate(782.9375,123.75)"/>
<path d="M0 0 C1.32 0 2.64 0 4 0 C4.50367757 1.45706726 5.00282556 2.91570096 5.5 4.375 C5.7784375 5.18710938 6.056875 5.99921875 6.34375 6.8359375 C7 9 7 9 7 11 C6.22398437 11.01981934 5.44796875 11.03963867 4.6484375 11.06005859 C1.09864413 11.15589878 -2.45060781 11.26533804 -6 11.375 C-7.22074219 11.4059375 -8.44148437 11.436875 -9.69921875 11.46875 C-22.74698552 11.86983014 -22.74698552 11.86983014 -34 18 C-38.04264449 23.39019265 -37.59316511 29.55992161 -37 36 C-36.10140994 41.28582389 -34.23365299 44.1455235 -30 47.4375 C-26.0959917 50.15108153 -23.06481872 51.13137418 -18.3125 51.0625 C-17.50425781 51.05347656 -16.69601562 51.04445312 -15.86328125 51.03515625 C-15.24839844 51.02355469 -14.63351562 51.01195312 -14 51 C-13.67 49.35 -13.34 47.7 -13 46 C-11.35 46 -9.7 46 -8 46 C-7.34 44.68 -6.68 43.36 -6 42 C-6.59167969 41.84144531 -7.18335938 41.68289062 -7.79296875 41.51953125 C-12.99808242 39.98262167 -16.75407195 38.60712369 -20 34 C-20.52081077 30.28922324 -20.43439043 27.99654274 -18.9375 24.5625 C-16.04961448 22.23356006 -13.58423038 22.72949205 -10 23 C-12.33214148 24.20628008 -14.49642139 25.1654738 -17 26 C-17.56480725 31.33604504 -17.56480725 31.33604504 -15.5625 36 C-10.37010903 38.02629891 -5.74392931 37.71048972 -0.625 35.625 C3.18541054 31.81458946 3.76551612 28.21226529 5 23 C0.38 23 -4.24 23 -9 23 C-9 22.01 -9 21.02 -9 20 C-9.99 19.67 -10.98 19.34 -12 19 C-11.67 18.34 -11.34 17.68 -11 17 C-10.401875 17.33 -9.80375 17.66 -9.1875 18 C-6.62593123 19.17100287 -4.90465209 19.2495592 -2.1875 18.5 C0.57455573 17.86867298 3.17660767 17.93583199 6 18 C7.1752164 24.2442221 7.20229954 28.25794565 4 34 C1.8125 36.9375 1.8125 36.9375 0 39 C1.32 39.33 2.64 39.66 4 40 C4.495 39.01 4.495 39.01 5 38 C5.66 38.99 6.32 39.98 7 41 C6.01 41.99 5.02 42.98 4 44 C5.32 44.66 6.64 45.32 8 46 C8 47.65 8 49.3 8 51 C13.28 51 18.56 51 24 51 C23.98428955 48.8346167 23.98428955 48.8346167 23.96826172 46.62548828 C23.9321407 41.28436754 23.90912835 35.94325766 23.89013672 30.60205078 C23.88006108 28.28757921 23.86640025 25.97312041 23.84912109 23.65869141 C23.82494135 20.33753307 23.8135327 17.0165426 23.8046875 13.6953125 C23.79436493 12.65569366 23.78404236 11.61607483 23.77340698 10.54495239 C23.77318039 9.10368484 23.77318039 9.10368484 23.77294922 7.63330078 C23.768508 6.78502716 23.76406677 5.93675354 23.75949097 5.06277466 C24 3 24 3 26 1 C27.1777808 6.56695009 27.12760748 11.98914563 27.09765625 17.6484375 C27.0962413 18.66096588 27.09482635 19.67349426 27.09336853 20.71670532 C27.08779143 23.93616751 27.07524312 27.15555899 27.0625 30.375 C27.05748204 32.56380108 27.05291965 34.75260325 27.04882812 36.94140625 C27.03868235 42.29431969 27.01910241 47.64708112 27 53 C19.74 53 12.48 53 5 53 C4.505 51.02 4.505 51.02 4 49 C2.7934375 49.928125 2.7934375 49.928125 1.5625 50.875 C-4.91290867 55.18175766 -13.1637392 55.90635634 -20.66796875 54.5 C-28.40853955 52.66148386 -32.52067925 50.35043345 -37.3125 43.875 C-41.11071389 37.40396892 -40.65164982 30.26665324 -40 23 C-38.15496651 17.28384486 -34.37040655 14.0659622 -29.35546875 11.0078125 C-22.05925476 7.8860493 -14.82853412 7.61014996 -7 7.375 C-5.93910156 7.33632812 -4.87820313 7.29765625 -3.78515625 7.2578125 C-1.19026933 7.16430306 1.40462449 7.07855098 4 7 C3.525625 6.21625 3.05125 5.4325 2.5625 4.625 C1.66101977 3.11051322 0.78820515 1.5764103 0 0 Z " fill="#0254AA" transform="translate(793,112)"/>
<path d="M0 0 C7.59 0 15.18 0 23 0 C23 33 23 66 23 100 C15.74 100 8.48 100 1 100 C0.67 98.02 0.34 96.04 0 94 C-0.886875 94.804375 -1.77375 95.60875 -2.6875 96.4375 C-5.38287032 98.7039159 -7.42063478 99.68417366 -11 100 C-9.6875 98.5 -9.6875 98.5 -8 97 C-7.01 97 -6.02 97 -5 97 C-4.505 95.515 -4.505 95.515 -4 94 C-3.34 94 -2.68 94 -2 94 C-1.34 92.68 -0.68 91.36 0 90 C0.99 90.33 1.98 90.66 3 91 C3.495 94.465 3.495 94.465 4 98 C9.28 98 14.56 98 20 98 C20 66.32 20 34.64 20 2 C14.06 2 8.12 2 2 2 C2 13.22 2 24.44 2 36 C0.02 36.495 0.02 36.495 -2 37 C-2.26683594 36.38511719 -2.53367187 35.77023438 -2.80859375 35.13671875 C-4.88991152 31.40399476 -8.06432607 30.13143858 -12 29 C-17.63461048 28.25366716 -23.32370878 28.12900662 -29 28 C-29 28.66 -29 29.32 -29 30 C-30.19625 30.4125 -31.3925 30.825 -32.625 31.25 C-36.53442243 32.70385994 -39.6310344 34.55749994 -43 37 C-43.66 36.67 -44.32 36.34 -45 36 C-35.77719222 28.59779843 -27.04210678 24.72615232 -15 26 C-9.950703 27.39268192 -5.3649187 29.0900542 -1 32 C-0.67 21.44 -0.34 10.88 0 0 Z " fill="#174784" transform="translate(598,65)"/>
<path d="M0 0 C7.59 0 15.18 0 23 0 C23 11.22 23 22.44 23 34 C22.01 34.495 22.01 34.495 21 35 C20.97494385 34.10168457 20.9498877 33.20336914 20.92407227 32.27783203 C20.82901307 28.94925131 20.72977579 25.62085006 20.62768555 22.29248047 C20.58433769 20.8511238 20.54266248 19.40971582 20.50268555 17.96826172 C20.44497912 15.89795459 20.38128629 13.82790568 20.31640625 11.7578125 C20.27974854 10.5114502 20.24309082 9.26508789 20.20532227 7.98095703 C20.19710521 5.07363058 20.19710521 5.07363058 19 3 C13.39 2.67 7.78 2.34 2 2 C2 34.01 2 66.02 2 99 C8.27 99 14.54 99 21 99 C20.97905273 97.6682373 20.95810547 96.33647461 20.93652344 94.96435547 C20.86397821 90.01085209 20.81814714 85.05739544 20.78027344 80.10351562 C20.76019112 77.96183366 20.73291963 75.8202063 20.69824219 73.67871094 C20.64957602 70.59556585 20.6269971 67.51314738 20.609375 64.4296875 C20.57840729 62.99965897 20.57840729 62.99965897 20.54681396 61.54074097 C20.54490439 55.84924504 21.10268258 52.46608162 25 48 C29.39420747 45.07052836 32.76914571 44.52446779 38 45 C40.9375 46 40.9375 46 43 47 C43 47.66 43 48.32 43 49 C43.99 49.33 44.98 49.66 46 50 C47.92490295 52.89938663 48.23167009 55.15254491 48.13525391 58.58496094 C48.11508209 59.48559265 48.09491028 60.38622437 48.0741272 61.31414795 C48.02583267 62.75966034 48.02583267 62.75966034 47.9765625 64.234375 C47.93902359 65.72411835 47.93902359 65.72411835 47.90072632 67.24395752 C47.81861976 70.41299033 47.72199333 73.58139128 47.625 76.75 C47.56675094 78.89971386 47.50944787 81.04945357 47.453125 83.19921875 C47.31482967 88.46664377 47.15690845 93.73296491 47 99 C54.26 99 61.52 99 69 99 C69 99.33 69 99.66 69 100 C61.41 100 53.82 100 46 100 C45.93941406 96.80957031 45.87882813 93.61914062 45.81640625 90.33203125 C45.75457436 87.23752574 45.69120426 84.14305528 45.62768555 81.04858398 C45.58440948 78.9001783 45.54272927 76.75173985 45.50268555 74.60327148 C45.4448054 71.51275768 45.38116208 68.4224077 45.31640625 65.33203125 C45.29133751 63.89426079 45.29133751 63.89426079 45.26576233 62.42744446 C45.2358445 61.07661018 45.2358445 61.07661018 45.20532227 59.69848633 C45.18200584 58.51601067 45.18200584 58.51601067 45.15821838 57.30964661 C44.98479905 54.77809895 44.66013299 52.45203231 44 50 C40.06489066 47.49583951 35.52743369 47.41344989 31 48 C27.96079742 49.2553228 26.49883708 50.10717624 24.89306641 52.98120117 C23.60033462 57.35097386 23.64187684 61.57739106 23.5859375 66.11328125 C23.56657135 67.08283249 23.5472052 68.05238373 23.5272522 69.05131531 C23.46762564 72.13828828 23.4211386 75.22529888 23.375 78.3125 C23.33680466 80.40952118 23.29775202 82.50652694 23.2578125 84.60351562 C23.16032939 89.73559536 23.08062602 94.86751709 23 100 C15.41 100 7.82 100 0 100 C0 67 0 34 0 0 Z " fill="#154582" transform="translate(631,65)"/>
<path d="M0 0 C2.66635672 3.91621143 3.70324819 7.20067884 3 11.9375 C0.75932449 15.91599316 -1.65111459 18.48787153 -6 19.9375 C-11.14986303 20.73994414 -15.07683355 20.38502028 -19.5 17.5 C-22.49612457 14.99230926 -23.55659256 13.18685445 -24.0625 9.3125 C-24.19215096 6.35645817 -24.04988012 3.71968233 -23 0.9375 C-15.09276181 -4.28426107 -8.24343153 -5.66735918 0 0 Z " fill="#FB620B" transform="translate(200,68.0625)"/>
<path d="M0 0 C0 7.26 0 14.52 0 22 C-4.95 23.485 -4.95 23.485 -10 25 C-10.99 25.33 -11.98 25.66 -13 26 C-13 25.01 -13 24.02 -13 23 C-6.375 20 -6.375 20 -3 20 C-3 14.06 -3 8.12 -3 2 C-12.08806088 4.49609786 -12.08806088 4.49609786 -18.75 10.625 C-19.17796875 11.25664063 -19.6059375 11.88828125 -20.046875 12.5390625 C-20.36140625 13.02117187 -20.6759375 13.50328125 -21 14 C-22.32 13.67 -23.64 13.34 -25 13 C-25 9.7 -25 6.4 -25 3 C-32.92 3.495 -32.92 3.495 -41 4 C-41 26.11 -41 48.22 -41 71 C-34.07 71.33 -27.14 71.66 -20 72 C-20.10699219 69.32648438 -20.21398437 66.65296875 -20.32421875 63.8984375 C-20.41732995 61.29715075 -20.50494689 58.69573262 -20.59204102 56.09423828 C-20.65531063 54.29194426 -20.72425433 52.48983984 -20.79907227 50.68798828 C-20.9058743 48.091767 -20.99197569 45.49553884 -21.07421875 42.8984375 C-21.11157639 42.0982016 -21.14893402 41.2979657 -21.18742371 40.47348022 C-21.31761134 35.5846287 -20.89437961 32.1563437 -18 28 C-15.8125 27.125 -15.8125 27.125 -14 27 C-14.64453125 28.09183594 -15.2890625 29.18367188 -15.953125 30.30859375 C-19.39733782 38.05807259 -18.68216612 46.74180736 -18.75 55.0625 C-18.77819693 56.80406569 -18.80812949 58.54560419 -18.83984375 60.28710938 C-18.91649292 64.52500159 -18.95741924 68.76108583 -19 73 C-26.92 73 -34.84 73 -43 73 C-43 49.24 -43 25.48 -43 1 C-36.07 1 -29.14 1 -22 1 C-21.67 3.31 -21.34 5.62 -21 8 C-20.154375 7.236875 -19.30875 6.47375 -18.4375 5.6875 C-12.36237434 0.67943389 -8.03577374 0 0 0 Z M-23 9 C-22 11 -22 11 -22 11 Z " fill="#174383" transform="translate(753,92)"/>
<path d="M0 0 C0.66 0 1.32 0 2 0 C1.31583566 4.17576168 -0.01365009 7.88080407 -1.5625 11.8125 C-2.01753906 12.97394531 -2.47257812 14.13539063 -2.94140625 15.33203125 C-3.29074219 16.21246094 -3.64007813 17.09289062 -4 18 C-4.66 18 -5.32 18 -6 18 C-6.144375 19.258125 -6.28875 20.51625 -6.4375 21.8125 C-6.73748686 24.42667123 -7.15813297 26.47439892 -8 29 C-8.66 29 -9.32 29 -10 29 C-10.13277344 29.62648437 -10.26554687 30.25296875 -10.40234375 30.8984375 C-10.57894531 31.71570313 -10.75554687 32.53296875 -10.9375 33.375 C-11.11152344 34.18710938 -11.28554688 34.99921875 -11.46484375 35.8359375 C-12 38 -12 38 -13 40 C-5.74 40 1.52 40 9 40 C9.598125 37.97875 10.19625 35.9575 10.8125 33.875 C12.16644924 29.29958532 13.8267065 25.24247712 16 21 C21.66043437 21.06871486 27.3201185 21.15660064 32.97998047 21.26245117 C34.90632831 21.29575369 36.83277499 21.32376889 38.75927734 21.34643555 C41.5248435 21.37988424 44.28949953 21.43219336 47.0546875 21.48828125 C48.3516304 21.49786613 48.3516304 21.49786613 49.67477417 21.50764465 C52.10107422 21.56762695 52.10107422 21.56762695 56 22 C56.99 23.485 56.99 23.485 58 25 C58.66 25.33 59.32 25.66 60 26 C59.67 27.32 59.34 28.64 59 30 C59.99 32.97 60.98 35.94 62 39 C72.89 39.495 72.89 39.495 84 40 C82.68 37.36 81.36 34.72 80 32 C80 30.68 80 29.36 80 28 C80.66 28 81.32 28 82 28 C82.83764268 29.95649397 83.66999059 31.91525556 84.5 33.875 C85.19609375 35.51082031 85.19609375 35.51082031 85.90625 37.1796875 C87 40 87 40 87 42 C78.09 42 69.18 42 60 42 C59.01 39.40125 58.02 36.8025 57 34.125 C56.68675781 33.30789551 56.37351562 32.49079102 56.05078125 31.64892578 C54 26.22222222 54 26.22222222 54 24 C41.79 24 29.58 24 17 24 C16.01 27.3 15.02 30.6 14 34 C13.01 36.64 12.02 39.28 11 42 C2.09 42 -6.82 42 -16 42 C-14.21456998 36.04856659 -12.56788701 30.60851007 -10.25 24.9375 C-9.99976074 24.32189209 -9.74952148 23.70628418 -9.49169922 23.07202148 C-8.66626005 21.0458745 -7.83358073 19.02281012 -7 17 C-6.35146182 15.41931214 -5.70302733 13.83858173 -5.0546875 12.2578125 C-3.3757122 8.16941502 -1.6895944 4.08401961 0 0 Z " fill="#114788" transform="translate(379,123)"/>
<path d="M0 0 C6.61453582 4.40553046 10.16096935 11.10891172 11.7578125 18.81640625 C11.84289583 20.52662337 11.87557632 22.23982143 11.87133789 23.95214844 C11.87126236 24.97290466 11.87118683 25.99366089 11.87110901 27.04534912 C11.86594772 28.14026672 11.86078644 29.23518433 11.85546875 30.36328125 C11.8540538 31.48961975 11.85263885 32.61595825 11.85118103 33.77642822 C11.84558449 37.3731146 11.8330326 40.96973869 11.8203125 44.56640625 C11.81529705 47.00520743 11.81073422 49.44400959 11.80664062 51.8828125 C11.79646719 57.86072038 11.77689094 63.8384936 11.7578125 69.81640625 C4.1678125 69.81640625 -3.4221875 69.81640625 -11.2421875 69.81640625 C-11.26796875 66.63757813 -11.29375 63.45875 -11.3203125 60.18359375 C-11.35875498 57.09561409 -11.40390822 54.00780016 -11.44970703 50.91992188 C-11.47788494 48.77840116 -11.49911525 46.63677707 -11.51318359 44.49511719 C-11.53465675 41.41157218 -11.58133067 38.32926607 -11.6328125 35.24609375 C-11.63404114 34.29274139 -11.63526978 33.33938904 -11.63653564 32.35714722 C-11.76331405 26.56762139 -12.41092211 23.24199288 -16.2421875 18.81640625 C-18.58156657 17.64671672 -20.01588118 17.68276404 -22.6171875 17.69140625 C-23.38804687 17.68882813 -24.15890625 17.68625 -24.953125 17.68359375 C-27.23164824 17.81579476 -29.10770527 17.99834478 -31.2421875 18.81640625 C-31.5721875 19.80640625 -31.9021875 20.79640625 -32.2421875 21.81640625 C-32.9021875 21.81640625 -33.5621875 21.81640625 -34.2421875 21.81640625 C-32.83677236 18.41998634 -31.35725843 16.76195932 -28.2421875 14.81640625 C-23.40965021 13.93123853 -19.29228484 14.35818195 -14.8046875 16.31640625 C-10.44137182 20.5732996 -9.10349623 25.63340539 -8.90161133 31.58007812 C-8.90207923 33.31517667 -8.91860378 35.05032775 -8.94921875 36.78515625 C-8.95346359 37.70607056 -8.95770844 38.62698486 -8.96208191 39.57580566 C-8.97874685 42.4896487 -9.01637562 45.40277564 -9.0546875 48.31640625 C-9.06975011 50.30337536 -9.08343575 52.29035542 -9.09570312 54.27734375 C-9.12604648 59.12418935 -9.18478999 63.96950531 -9.2421875 68.81640625 C-2.6421875 68.81640625 3.9578125 68.81640625 10.7578125 68.81640625 C10.73827017 62.19960424 10.68618036 55.58410961 10.60522461 48.96777344 C10.58217113 46.72175233 10.56767892 44.47562506 10.56225586 42.22949219 C10.62039499 24.87725515 10.62039499 24.87725515 4.7578125 8.81640625 C4.7578125 8.15640625 4.7578125 7.49640625 4.7578125 6.81640625 C4.0978125 6.81640625 3.4378125 6.81640625 2.7578125 6.81640625 C2.3246875 6.19765625 1.8915625 5.57890625 1.4453125 4.94140625 C-0.55438188 2.42327258 -2.22622823 1.7945552 -5.2421875 0.81640625 C-5.2421875 0.15640625 -5.2421875 -0.50359375 -5.2421875 -1.18359375 C-8.07686092 -1.09576733 -10.90872166 -0.98878473 -13.7421875 -0.87109375 C-14.92941406 -0.83725586 -14.92941406 -0.83725586 -16.140625 -0.80273438 C-21.74544821 -0.55005792 -26.08045277 0.60846238 -31.2421875 2.81640625 C-30.2421875 -0.18359375 -30.2421875 -0.18359375 -27.984375 -1.3515625 C-17.82242797 -4.96500688 -9.70255395 -5.12173144 0 0 Z " fill="#154887" transform="translate(526.2421875,95.18359375)"/>
<path d="M0 0 C1.32 0 2.64 0 4 0 C4.50367757 1.45706726 5.00282556 2.91570096 5.5 4.375 C5.7784375 5.18710938 6.056875 5.99921875 6.34375 6.8359375 C7 9 7 9 7 11 C6.22398437 11.01981934 5.44796875 11.03963867 4.6484375 11.06005859 C1.09864413 11.15589878 -2.45060781 11.26533804 -6 11.375 C-7.22074219 11.4059375 -8.44148437 11.436875 -9.69921875 11.46875 C-22.74698552 11.86983014 -22.74698552 11.86983014 -34 18 C-38.04264449 23.39019265 -37.59316511 29.55992161 -37 36 C-36.13435287 41.09204195 -34.31642238 44.10263908 -30.3125 47.375 C-23.49225045 51.94667911 -16.09217986 52.8578735 -8 52 C-4.1430406 51.00361882 -0.86911336 49.86911336 2 47 C2.99 47.33 3.98 47.66 5 48 C-2.07736955 54.06631676 -8.8223706 55.0732536 -18 55 C-24.97015669 54.01940761 -30.12872536 52.1088978 -35 47 C-40.64350301 39.37364458 -40.82296357 32.1770007 -40 23 C-38.15496651 17.28384486 -34.37040655 14.0659622 -29.35546875 11.0078125 C-22.05925476 7.8860493 -14.82853412 7.61014996 -7 7.375 C-5.93910156 7.33632812 -4.87820313 7.29765625 -3.78515625 7.2578125 C-1.19026933 7.16430306 1.40462449 7.07855098 4 7 C3.525625 6.21625 3.05125 5.4325 2.5625 4.625 C1.66101977 3.11051322 0.78820515 1.5764103 0 0 Z " fill="#0F458C" transform="translate(793,112)"/>
<path d="M0 0 C7.26 0 14.52 0 22 0 C22.33 1.65 22.66 3.3 23 5 C23.66 4.67 24.32 4.34 25 4 C24.67 5.65 24.34 7.3 24 9 C23.34 9 22.68 9 22 9 C20.5393715 6.35261084 20 5.10551666 20 2 C14.06 2 8.12 2 2 2 C2 24.77 2 47.54 2 71 C8.6 71 15.2 71 22 71 C22 55.82 22 40.64 22 25 C22.66 25 23.32 25 24 25 C23.67 40.51 23.34 56.02 23 72 C15.41 72 7.82 72 0 72 C0 48.24 0 24.48 0 0 Z " fill="#134683" transform="translate(469,93)"/>
<path d="M0 0 C0.66 0 1.32 0 2 0 C2 32.01 2 64.02 2 97 C-4.93 97 -11.86 97 -19 97 C-19.495 94.525 -19.495 94.525 -20 92 C-20.886875 92.804375 -21.77375 93.60875 -22.6875 94.4375 C-25.38287032 96.7039159 -27.42063478 97.68417366 -31 98 C-29.6875 96.5 -29.6875 96.5 -28 95 C-27.01 95 -26.02 95 -25 95 C-24.67 94.01 -24.34 93.02 -24 92 C-23.34 92 -22.68 92 -22 92 C-21.34 90.68 -20.68 89.36 -20 88 C-19.01 88.33 -18.02 88.66 -17 89 C-16.67 91.31 -16.34 93.62 -16 96 C-10.72 96 -5.44 96 0 96 C0 64.32 0 32.64 0 0 Z " fill="#094998" transform="translate(618,67)"/>
<path d="M0 0 C4.97562552 4.49019864 8.55929647 9.62054235 9.5625 16.3125 C6.38673058 14.19532039 5.8484497 13.24425848 4.25 9.9375 C1.97209289 5.69447303 -0.08448379 3.57606843 -4.4375 1.3125 C-5.40042969 0.79816406 -6.36335937 0.28382812 -7.35546875 -0.24609375 C-12.62694037 -2.4830651 -18.23292797 -2.25780563 -23.875 -2.375 C-25.5446582 -2.42624023 -25.5446582 -2.42624023 -27.24804688 -2.47851562 C-29.97776383 -2.56052429 -32.7071786 -2.62982837 -35.4375 -2.6875 C-35.4375 -2.0275 -35.4375 -1.3675 -35.4375 -0.6875 C-36.05625 -0.584375 -36.675 -0.48125 -37.3125 -0.375 C-39.80276484 0.18775373 -39.80276484 0.18775373 -41.4375 3.3125 C-44.5625 4.5 -44.5625 4.5 -47.4375 5.3125 C-46.7878125 6.25222656 -46.7878125 6.25222656 -46.125 7.2109375 C-45.568125 8.02820313 -45.01125 8.84546875 -44.4375 9.6875 C-43.880625 10.49960938 -43.32375 11.31171875 -42.75 12.1484375 C-41.4375 14.3125 -41.4375 14.3125 -41.4375 16.3125 C-39.9785574 15.83519162 -38.52036504 15.35558958 -37.0625 14.875 C-36.25039063 14.60816406 -35.43828125 14.34132813 -34.6015625 14.06640625 C-32.42718201 13.36070271 -32.42718201 13.36070271 -30.4375 12.3125 C-28.2302077 12.24157158 -26.02082548 12.22834975 -23.8125 12.25 C-22.62398437 12.25902344 -21.43546875 12.26804687 -20.2109375 12.27734375 C-19.29570313 12.28894531 -18.38046875 12.30054687 -17.4375 12.3125 C-20.67940609 14.47377073 -22.44858813 14.74792673 -26.25 15.25 C-30.86487169 15.94668957 -34.34164151 17.00201573 -38.4375 19.3125 C-39.4275 19.3125 -40.4175 19.3125 -41.4375 19.3125 C-43.1782752 17.4296207 -44.67479151 15.61443896 -46.1875 13.5625 C-46.61160156 13.02367188 -47.03570313 12.48484375 -47.47265625 11.9296875 C-50.46931718 7.92763218 -50.46931718 7.92763218 -50.3203125 5.046875 C-47.53204134 -0.43096745 -41.50562986 -2.02422022 -36.06640625 -3.87109375 C-23.57041766 -7.75172022 -11.61314823 -5.70100004 0 0 Z " fill="#0F438A" transform="translate(808.4375,96.6875)"/>
<path d="M0 0 C1.084021 0.00523682 2.16804199 0.01047363 3.28491211 0.01586914 C4.45473633 0.0190918 5.62456055 0.02231445 6.82983398 0.02563477 C8.0615332 0.03401367 9.29323242 0.04239258 10.56225586 0.05102539 C12.41560547 0.05779297 12.41560547 0.05779297 14.30639648 0.06469727 C17.37089703 0.07652931 20.43530307 0.09301366 23.49975586 0.11352539 C24.67289612 2.88177727 25.83845801 5.65281025 26.99975586 8.42602539 C27.33362305 9.21170898 27.66749023 9.99739258 28.01147461 10.80688477 C28.32729492 11.56420898 28.64311523 12.3215332 28.96850586 13.10180664 C29.26176758 13.79830322 29.5550293 14.4947998 29.85717773 15.21240234 C30.49975586 17.11352539 30.49975586 17.11352539 30.49975586 20.11352539 C29.83975586 20.11352539 29.17975586 20.11352539 28.49975586 20.11352539 C26.89620484 16.60575755 26.27938722 13.9699766 26.49975586 10.11352539 C25.83975586 10.11352539 25.17975586 10.11352539 24.49975586 10.11352539 C23.24310608 7.20752278 22.49975586 5.31747955 22.49975586 2.11352539 C14.57975586 2.44352539 6.65975586 2.77352539 -1.50024414 3.11352539 C-2.82024414 6.74352539 -4.14024414 10.37352539 -5.50024414 14.11352539 C-6.57913182 17.01118015 -7.66063217 19.9074385 -8.75024414 22.80102539 C-9.01836914 23.51452148 -9.28649414 24.22801758 -9.56274414 24.96313477 C-10.20805681 26.68012741 -10.85407022 28.39685668 -11.50024414 30.11352539 C-12.16024414 30.11352539 -12.82024414 30.11352539 -13.50024414 30.11352539 C-13.69626022 31.86259198 -13.88171817 33.61284385 -14.06274414 35.36352539 C-14.21936523 36.82532227 -14.21936523 36.82532227 -14.37915039 38.31665039 C-14.48998882 40.87666059 -14.27762506 42.69500698 -13.50024414 45.11352539 C-14.49024414 44.78352539 -15.48024414 44.45352539 -16.50024414 44.11352539 C-16.96430664 45.04165039 -16.96430664 45.04165039 -17.43774414 45.98852539 C-18.12524414 47.36352539 -18.81274414 48.73852539 -19.50024414 50.11352539 C-20.16024414 50.11352539 -20.82024414 50.11352539 -21.50024414 50.11352539 C-21.83024414 52.09352539 -22.16024414 54.07352539 -22.50024414 56.11352539 C-23.16024414 56.11352539 -23.82024414 56.11352539 -24.50024414 56.11352539 C-22.33936488 48.18582755 -19.40692237 40.69192578 -16.25024414 33.11352539 C-15.26725927 30.73121346 -14.28549198 28.34839878 -13.30493164 25.96508789 C-12.82765625 24.80525391 -12.35038086 23.64541992 -11.85864258 22.45043945 C-9.66959582 17.07303273 -7.57790323 11.65904741 -5.51879883 6.23071289 C-3.19275747 0.14496946 -3.19275747 0.14496946 0 0 Z " fill="#0F478C" transform="translate(404.500244140625,65.886474609375)"/>
<path d="M0 0 C7.59 0 15.18 0 23 0 C23 11.22 23 22.44 23 34 C22.01 34.495 22.01 34.495 21 35 C20.97494385 34.10168457 20.9498877 33.20336914 20.92407227 32.27783203 C20.82901307 28.94925131 20.72977579 25.62085006 20.62768555 22.29248047 C20.58433769 20.8511238 20.54266248 19.40971582 20.50268555 17.96826172 C20.44497912 15.89795459 20.38128629 13.82790568 20.31640625 11.7578125 C20.27974854 10.5114502 20.24309082 9.26508789 20.20532227 7.98095703 C20.19710521 5.07363058 20.19710521 5.07363058 19 3 C13.39 2.67 7.78 2.34 2 2 C2 34.01 2 66.02 2 99 C1.67 99 1.34 99 1 99 C0.67 66.33 0.34 33.66 0 0 Z " fill="#115095" transform="translate(631,65)"/>
<path d="M0 0 C1.485 0.99 1.485 0.99 3 2 C2.34 2 1.68 2 1 2 C1 34.01 1 66.02 1 99 C0.01 99.495 0.01 99.495 -1 100 C-1.0231211 87.10927745 -1.04091389 74.2185598 -1.05181217 61.32782078 C-1.05704151 55.34280734 -1.06414008 49.35780804 -1.07543945 43.37280273 C-1.08626653 37.60216571 -1.09227645 31.83154232 -1.09487724 26.06089592 C-1.09673182 23.85397057 -1.10035304 21.647046 -1.10573006 19.44012642 C-1.1129381 16.36053959 -1.11399104 13.28100986 -1.11352539 10.20141602 C-1.11712067 9.27928818 -1.12071594 8.35716034 -1.12442017 7.40708923 C-1.11405216 1.11405216 -1.11405216 1.11405216 0 0 Z " fill="#EB6827" transform="translate(93,65)"/>
<path d="M0 0 C0.33 0 0.66 0 1 0 C2.1777808 5.56695009 2.12760748 10.98914563 2.09765625 16.6484375 C2.0962413 17.66096588 2.09482635 18.67349426 2.09336853 19.71670532 C2.08779143 22.93616751 2.07524312 26.15555899 2.0625 29.375 C2.05748204 31.56380108 2.05291965 33.75260325 2.04882812 35.94140625 C2.03868235 41.29431969 2.01910241 46.64708112 2 52 C-5.26 52 -12.52 52 -20 52 C-20 50.68 -20 49.36 -20 48 C-19.34 48 -18.68 48 -18 48 C-17.67 47.01 -17.34 46.02 -17 45 C-17 46.65 -17 48.3 -17 50 C-11.72 50 -6.44 50 -1 50 C-1.00785522 47.8346167 -1.00785522 47.8346167 -1.01586914 45.62548828 C-1.03392971 40.28434872 -1.04543591 34.94321188 -1.05493164 29.60205078 C-1.05996943 27.28759304 -1.06679981 24.9731385 -1.07543945 22.65869141 C-1.08752924 19.3375571 -1.09323375 16.01646475 -1.09765625 12.6953125 C-1.10281754 11.65569366 -1.10797882 10.61607483 -1.11329651 9.54495239 C-1.11337204 8.58410736 -1.11344757 7.62326233 -1.11352539 6.63330078 C-1.115746 5.78502716 -1.11796661 4.93675354 -1.12025452 4.06277466 C-1 2 -1 2 0 0 Z " fill="#104D93" transform="translate(818,113)"/>
<path d="M0 0 C0.33 0.66 0.66 1.32 1 2 C0.05898437 1.95359375 -0.88203125 1.9071875 -1.8515625 1.859375 C-9.55548773 1.30675218 -9.55548773 1.30675218 -16.6875 3.625 C-21.10755394 8.16451486 -22.18919685 11.74462729 -22.375 18 C-22.24069184 22.71830417 -21.83907074 26.08404036 -19 30 C-14.01563657 34.49808407 -11.04063709 35.27780041 -4.48046875 35.23046875 C-1.35293699 34.93987918 0.54067154 33.92135036 3 32 C3.66 31.67 4.32 31.34 5 31 C4.25 33.4375 4.25 33.4375 3 36 C-2.1877656 37.94245105 -9.88864747 38.27474832 -15.01171875 36.17578125 C-16.5625 35.125 -16.5625 35.125 -19 33 C-21.95377498 30.63019987 -21.95377498 30.63019987 -26 31 C-25.79375 30.443125 -25.5875 29.88625 -25.375 29.3125 C-24.78578532 26.95538206 -24.78578532 26.95538206 -25.9375 24.71875 C-27.08543653 21.781383 -27.39827631 19.32384439 -27.625 16.1875 C-27.69976562 15.21167969 -27.77453125 14.23585938 -27.8515625 13.23046875 C-27.90054688 12.49441406 -27.94953125 11.75835937 -28 11 C-27.01 10.67 -26.02 10.34 -25 10 C-25.226875 9.443125 -25.45375 8.88625 -25.6875 8.3125 C-26.12449065 5.07876916 -24.81198627 3.60926022 -23 1 C-22.67 1.66 -22.34 2.32 -22 3 C-20.96875 2.505 -19.9375 2.01 -18.875 1.5 C-12.79141044 -0.83899743 -6.41073369 -0.24310367 0 0 Z " fill="#EB611B" transform="translate(254,111)"/>
<path d="M0 0 C0 7.26 0 14.52 0 22 C-4.95 23.485 -4.95 23.485 -10 25 C-10.99 25.33 -11.98 25.66 -13 26 C-13 25.01 -13 24.02 -13 23 C-6.375 20 -6.375 20 -3 20 C-3 14.06 -3 8.12 -3 2 C-12.08806088 4.49609786 -12.08806088 4.49609786 -18.75 10.625 C-19.17796875 11.25664063 -19.6059375 11.88828125 -20.046875 12.5390625 C-20.36140625 13.02117187 -20.6759375 13.50328125 -21 14 C-22.32 13.67 -23.64 13.34 -25 13 C-25 9.7 -25 6.4 -25 3 C-24.34 3 -23.68 3 -23 3 C-22.67 4.65 -22.34 6.3 -22 8 C-21.40832031 7.59007813 -20.81664062 7.18015625 -20.20703125 6.7578125 C-19.41683594 6.21898438 -18.62664063 5.68015625 -17.8125 5.125 C-17.03519531 4.59132813 -16.25789062 4.05765625 -15.45703125 3.5078125 C-9.71965447 -0.01305783 -7.29493071 0 0 0 Z M-23 9 C-22 11 -22 11 -22 11 Z " fill="#044C99" transform="translate(753,92)"/>
<path d="M0 0 C2.46047657 2.16538776 3.45275742 3.71606597 4.16796875 6.90625 C4.42416992 8.02193359 4.42416992 8.02193359 4.68554688 9.16015625 C4.85119141 9.93230469 5.01683594 10.70445313 5.1875 11.5 C5.36474609 12.27214844 5.54199219 13.04429688 5.72460938 13.83984375 C6.42165531 16.94560056 7 19.80780283 7 23 C7.66 23 8.32 23 9 23 C9.67413211 24.91405367 10.3390332 26.83136026 11 28.75 C11.37125 29.81734375 11.7425 30.8846875 12.125 31.984375 C13 35 13 35 13 39 C9.04 38.67 5.08 38.34 1 38 C1 37.67 1 37.34 1 37 C3.97 37 6.94 37 10 37 C9.76812988 36.2793335 9.53625977 35.55866699 9.29736328 34.81616211 C8.23874346 31.52364814 7.18185746 28.23058007 6.125 24.9375 C5.76019531 23.80376953 5.39539063 22.67003906 5.01953125 21.50195312 C4.48779297 19.84389648 4.48779297 19.84389648 3.9453125 18.15234375 C3.45828857 16.6362854 3.45828857 16.6362854 2.96142578 15.08959961 C1.9199704 11.74282008 0.96291862 8.37021517 0 5 C-2.64 12.59 -5.28 20.18 -8 28 C-8.33 28 -8.66 28 -9 28 C-8.67 24.7 -8.34 21.4 -8 18 C-7.34 18 -6.68 18 -6 18 C-5.896875 17.05125 -5.79375 16.1025 -5.6875 15.125 C-4.99702917 10.3114319 -3.80869486 5.51741014 -2 1 C-1.34 0.67 -0.68 0.34 0 0 Z " fill="#104A8D" transform="translate(415,90)"/>
<path d="M0 0 C7.59 0 15.18 0 23 0 C23 0.66 23 1.32 23 2 C16.4 2 9.8 2 3 2 C3 13.22 3 24.44 3 36 C1.35 35.67 -0.3 35.34 -2 35 C-2.33 34.34 -2.66 33.68 -3 33 C-3.99 32.67 -4.98 32.34 -6 32 C-6 31.34 -6 30.68 -6 30 C-1.125 31.875 -1.125 31.875 0 33 C0 22.11 0 11.22 0 0 Z " fill="#EF5209" transform="translate(260,65)"/>
<path d="M0 0 C4.14125407 4.14125407 4.09935484 11.35778932 4.22705078 16.99072266 C4.2267407 18.71520169 4.2158408 20.43970562 4.1953125 22.1640625 C4.1924826 23.08214691 4.18965271 24.00023132 4.18673706 24.94613647 C4.17566399 27.83923136 4.15058467 30.73200086 4.125 33.625 C4.11495352 35.60286007 4.10583061 37.58072506 4.09765625 39.55859375 C4.07576705 44.37251859 4.04132832 49.1862044 4 54 C3.34 54 2.68 54 2 54 C2.01160156 52.77023438 2.02320313 51.54046875 2.03515625 50.2734375 C2.04454022 48.64062653 2.05363977 47.0078139 2.0625 45.375 C2.07087891 44.56675781 2.07925781 43.75851563 2.08789062 42.92578125 C2.09111328 42.13300781 2.09433594 41.34023437 2.09765625 40.5234375 C2.10551147 39.4394165 2.10551147 39.4394165 2.11352539 38.33349609 C2.04250947 35.90478456 2.04250947 35.90478456 1.51367188 33.1640625 C0.95145533 29.70097962 0.78848749 26.35801028 0.68359375 22.8515625 C0.66281265 22.19417084 0.64203156 21.53677917 0.62062073 20.85946655 C0.55579247 18.78140638 0.49655436 16.70323144 0.4375 14.625 C0.39425112 13.20701989 0.35063491 11.78905093 0.30664062 10.37109375 C0.20018082 6.9141812 0.09873016 3.45714294 0 0 Z " fill="#08437C" transform="translate(697,106)"/>
<path d="M0 0 C2.66689836 3.91700696 3.70213103 7.20013317 3 11.9375 C1.43109568 14.76981241 -0.3924436 17.00666657 -3 18.9375 C-3.99 18.9375 -4.98 18.9375 -6 18.9375 C-6 18.2775 -6 17.6175 -6 16.9375 C-5.34 16.9375 -4.68 16.9375 -4 16.9375 C-4 15.9475 -4 14.9575 -4 13.9375 C-2.35 13.6075 -0.7 13.2775 1 12.9375 C1 9.9675 1 6.9975 1 3.9375 C-0.32 3.6075 -1.64 3.2775 -3 2.9375 C-3.33 2.2775 -3.66 1.6175 -4 0.9375 C-5.98 0.9375 -7.96 0.9375 -10 0.9375 C-10 0.2775 -10 -0.3825 -10 -1.0625 C-14.05085679 -0.81618443 -14.05085679 -0.81618443 -18 -0.0625 C-19.5899433 1.85814793 -19.5899433 1.85814793 -20 3.9375 C-20.66 3.9375 -21.32 3.9375 -22 3.9375 C-22 6.9075 -22 9.8775 -22 12.9375 C-24 10.9375 -24 10.9375 -24.1875 8.0625 C-24.125625 7.03125 -24.06375 6 -24 4.9375 C-23.979375 4.23625 -23.95875 3.535 -23.9375 2.8125 C-22.10729855 -0.8479029 -17.78904206 -2.46495995 -14.046875 -3.71484375 C-8.92520208 -4.58474621 -4.17717427 -2.87180731 0 0 Z " fill="#ED5E1D" transform="translate(200,68.0625)"/>
<path d="M0 0 C1 3 1 3 0.0390625 5.33984375 C-0.42757812 6.19707031 -0.89421875 7.05429688 -1.375 7.9375 C-4.84963634 14.37237122 -5.20770343 19.47064853 -5.25 26.6875 C-5.270625 27.54794922 -5.29125 28.40839844 -5.3125 29.29492188 C-5.35663166 36.61526163 -4.09802943 42.85295585 0 49 C-0.375 51.1875 -0.375 51.1875 -1 53 C-8.36510172 39.52047422 -11.0521579 28.01905076 -7.06640625 13.01953125 C-5.38427902 8.25658491 -2.84021025 4.15461176 0 0 Z " fill="#1B498A" transform="translate(552,102)"/>
<path d="M0 0 C0.69222656 0.26941406 1.38445313 0.53882812 2.09765625 0.81640625 C5.5013424 3.81540785 5.7986831 8.35569935 6.0871582 12.68188477 C6.13281941 14.93784153 6.11332283 17.18174817 6.0625 19.4375 C6.05347656 20.21222656 6.04445313 20.98695313 6.03515625 21.78515625 C6.01189388 23.66940843 5.9760364 25.55349832 5.9375 27.4375 C5.2775 27.4375 4.6175 27.4375 3.9375 27.4375 C3.97230469 26.35210937 4.00710938 25.26671875 4.04296875 24.1484375 C4.07112388 22.70314058 4.09842219 21.25782679 4.125 19.8125 C4.15013672 19.09964844 4.17527344 18.38679688 4.20117188 17.65234375 C4.27838585 12.04146172 3.10362909 8.05490599 -0.5625 3.625 C-4.83078716 0.24593933 -10.93423888 1.03145 -16.0625 1.4375 C-19.83381063 2.85174149 -20.7443085 3.8836111 -22.75 7.375 C-23.183125 8.385625 -23.61625 9.39625 -24.0625 10.4375 C-24.72916667 11.77083333 -25.39583333 13.10416667 -26.0625 14.4375 C-26.38236304 10.43921201 -26.28479924 7.90988587 -24.5625 4.25 C-17.55622923 -3.63205462 -9.40614915 -3.92069394 0 0 Z " fill="#10488D" transform="translate(593.0625,111.5625)"/>
<path d="M0 0 C3.15215267 4.72822901 4.91341343 10.08316555 6.96972656 15.35791016 C7.72956793 17.30648914 8.49238189 19.2539096 9.25683594 21.20068359 C10.63556424 24.71480768 12.00622544 28.23198802 13.375 31.75 C13.82810547 32.90508057 14.28121094 34.06016113 14.74804688 35.25024414 C15.16892578 36.33813232 15.58980469 37.42602051 16.0234375 38.546875 C16.40419434 39.52495117 16.78495117 40.50302734 17.17724609 41.51074219 C18 44 18 44 18 47 C17.34 47 16.68 47 16 47 C14.41369273 43.06369181 12.83151393 39.12573622 11.25 35.1875 C10.8065625 34.08728516 10.363125 32.98707031 9.90625 31.85351562 C2 12.14602482 2 12.14602482 2 9 C1.34 8.67 0.68 8.34 0 8 C0 5.36 0 2.72 0 0 Z " fill="#10468C" transform="translate(435,86)"/>
<path d="M0 0 C3.1247756 2.48561696 5.31366445 5.03459517 7.75 8.1875 C7.42 8.8475 7.09 9.5075 6.75 10.1875 C6.02296875 9.39085938 6.02296875 9.39085938 5.28125 8.578125 C-0.2830374 2.71422212 -4.95790581 -1.40372913 -13.1875 -2.1875 C-14.54477532 -2.10267029 -15.89995784 -1.97614147 -17.25 -1.8125 C-17.971875 -1.73 -18.69375 -1.6475 -19.4375 -1.5625 C-25.72250116 -0.51499981 -30.20979131 2.39840694 -35.25 6.1875 C-33.53787239 1.32441452 -31.83193646 -0.30540269 -27.25 -2.8125 C-17.33207869 -6.48580419 -9.02155055 -5.03124935 0 0 Z " fill="#12498C" transform="translate(689.25,95.8125)"/>
<path d="M0 0 C0.66 0 1.32 0 2 0 C2.09796875 0.72445312 2.1959375 1.44890625 2.296875 2.1953125 C3.37481209 9.16473336 4.68234643 13.9839513 10.0625 18.875 C15.54288215 20.97386976 21.5768285 21.00965479 27 18.75 C29.01709742 16.98503976 30.53275705 15.23947608 32 13 C31.88903776 16.88367838 30.98155046 18.01844954 28.1875 20.8125 C23.19600934 24.07140712 17.73516351 23.88050228 12 23 C9.35909336 21.94657713 8.10550579 20.98853325 6 19 C6 18.34 6 17.68 6 17 C5.34 17 4.68 17 4 17 C0.5246131 11.02667877 -0.57374185 6.88490225 0 0 Z " fill="#10458C" transform="translate(565,126)"/>
<path d="M0 0 C0.598125 0.33 1.19625 0.66 1.8125 1 C4.37406877 2.17100287 6.09534791 2.2495592 8.8125 1.5 C11.57455573 0.86867298 14.17660767 0.93583199 17 1 C18.17059148 7.21964869 18.24369667 11.29556793 15 17 C12.8125 19.4375 12.8125 19.4375 11 21 C11 18 11 18 12.375 16.3125 C14.67362213 13.04138389 15.15555284 9.89744845 16 6 C11.38 6 6.76 6 2 6 C2 5.01 2 4.02 2 3 C1.01 2.67 0.02 2.34 -1 2 C-0.67 1.34 -0.34 0.68 0 0 Z " fill="#0A4D97" transform="translate(782,129)"/>
<path d="M0 0 C0.99 0.33 1.98 0.66 3 1 C1.37660195 2.70884005 -0.29319053 4.37446717 -2 6 C-2.66 6 -3.32 6 -4 6 C-4.66 8.31 -5.32 10.62 -6 13 C-7.32 13.33 -8.64 13.66 -10 14 C-10.3396019 15.87387477 -10.67138691 17.74916697 -11 19.625 C-11.185625 20.66914062 -11.37125 21.71328125 -11.5625 22.7890625 C-11.98715797 25.90574865 -12.07545206 28.85930812 -12 32 C-12.66 31.34 -13.32 30.68 -14 30 C-14.66 30.33 -15.32 30.66 -16 31 C-15.95365958 20.52706552 -11.75216613 11.89546119 -5 4 C-2.4375 1.625 -2.4375 1.625 0 0 Z " fill="#ED5A12" transform="translate(306,96)"/>
<path d="M0 0 C7.26 0 14.52 0 22 0 C22 10.89 22 21.78 22 33 C21.01 33.495 21.01 33.495 20 34 C19.97494385 33.10168457 19.9498877 32.20336914 19.92407227 31.27783203 C19.82901307 27.94925131 19.72977579 24.62085006 19.62768555 21.29248047 C19.58433769 19.8511238 19.54266248 18.40971582 19.50268555 16.96826172 C19.44497912 14.89795459 19.38128629 12.82790568 19.31640625 10.7578125 C19.27974854 9.5114502 19.24309082 8.26508789 19.20532227 6.98095703 C19.19710521 4.07363058 19.19710521 4.07363058 18 2 C12.06 1.67 6.12 1.34 0 1 C0 0.67 0 0.34 0 0 Z " fill="#07418B" transform="translate(632,66)"/>
<path d="M0 0 C9.93841532 -0.7169999 18.50084776 1.30041617 27.4375 5.6875 C32.41312552 10.17769864 35.99679647 15.30804235 37 22 C33.82423058 19.88282039 33.2859497 18.93175848 31.6875 15.625 C29.3877171 11.35982399 27.38400669 9.27631117 23 7 C22.37609375 6.64164062 21.7521875 6.28328125 21.109375 5.9140625 C14.36118715 2.39000884 7.50317223 2.21346151 0 2 C0 1.34 0 0.68 0 0 Z " fill="#184886" transform="translate(781,91)"/>
<path d="M0 0 C1.32 0 2.64 0 4 0 C5.485 4.455 5.485 4.455 7 9 C4.05587973 10.47206013 1.03714085 10.23807192 -2.1953125 10.31640625 C-3.25647781 10.3475779 -3.25647781 10.3475779 -4.33908081 10.37937927 C-6.60095425 10.44481078 -8.86294462 10.50372974 -11.125 10.5625 C-12.65756422 10.60569133 -14.19011657 10.64930582 -15.72265625 10.69335938 C-19.48165073 10.80048555 -23.24076292 10.9017709 -27 11 C-22.63616099 8.090774 -18.63649264 7.88522597 -13.48046875 7.68359375 C-12.45888672 7.64169922 -11.43730469 7.59980469 -10.38476562 7.55664062 C-9.32966797 7.51732422 -8.27457031 7.47800781 -7.1875 7.4375 C-6.11306641 7.39431641 -5.03863281 7.35113281 -3.93164062 7.30664062 C-1.28787918 7.20089017 1.3559711 7.09879767 4 7 C3.525625 6.21625 3.05125 5.4325 2.5625 4.625 C1.66101977 3.11051322 0.78820515 1.5764103 0 0 Z " fill="#155198" transform="translate(793,112)"/>
<path d="M0 0 C5.26630019 3.40554079 10.2703193 6.87668862 15 11 C14.67 11.99 14.34 12.98 14 14 C13.34 13.01 12.68 12.02 12 11 C10.12135411 9.99638658 10.12135411 9.99638658 8 9.3125 C7.29875 9.06113281 6.5975 8.80976563 5.875 8.55078125 C4.00588341 7.90605278 4.00588341 7.90605278 2 8 C1.34 7.01 0.68 6.02 0 5 C-0.928125 5.515625 -1.85625 6.03125 -2.8125 6.5625 C-6 8 -6 8 -9 7 C-8.43410156 6.57847656 -7.86820312 6.15695313 -7.28515625 5.72265625 C-6.55167969 5.17480469 -5.81820313 4.62695312 -5.0625 4.0625 C-4.33160156 3.51722656 -3.60070312 2.97195312 -2.84765625 2.41015625 C-1.0865547 1.13092062 -1.0865547 1.13092062 0 0 Z " fill="#E75D1F" transform="translate(345,139)"/>
<path d="M0 0 C0.66 0 1.32 0 2 0 C1.48604868 4.49707401 0.47494698 7.03839746 -3 10 C-7.25948448 10.64048007 -11.45506948 10.46776723 -15.75 10.3125 C-17.51150391 10.27866211 -17.51150391 10.27866211 -19.30859375 10.24414062 C-22.20701637 10.1852296 -25.10286427 10.10301631 -28 10 C-28 9.34 -28 8.68 -28 8 C-27.31897217 7.97494385 -26.63794434 7.9498877 -25.9362793 7.92407227 C-22.85316245 7.80809048 -19.77034954 7.68537384 -16.6875 7.5625 C-15.61564453 7.52318359 -14.54378906 7.48386719 -13.43945312 7.44335938 C-12.41142578 7.40146484 -11.38339844 7.35957031 -10.32421875 7.31640625 C-9.37635498 7.27974854 -8.42849121 7.24309082 -7.4519043 7.20532227 C-4.863829 7.08569813 -4.863829 7.08569813 -2 6 C-0.77479736 2.99152582 -0.77479736 2.99152582 0 0 Z " fill="#EB621D" transform="translate(145,103)"/>
<path d="M0 0 C3.50540683 1.27025195 6.13995575 2.79701532 9.125 5 C16.57152319 9.65407699 25.45714283 9.49128777 34 10 C27.57227136 13.57891349 21.24855186 12.27853838 14.4375 10.4375 C8.47343669 8.49147934 4.12221031 5.74490069 0 1 C0 0.67 0 0.34 0 0 Z " fill="#0F4589" transform="translate(552,155)"/>
<path d="M0 0 C-2.83384108 0.82514784 -5.16935251 1.07936233 -8.109375 0.87890625 C-8.86347656 0.83056641 -9.61757813 0.78222656 -10.39453125 0.73242188 C-11.17183594 0.67634766 -11.94914063 0.62027344 -12.75 0.5625 C-13.54277344 0.51029297 -14.33554687 0.45808594 -15.15234375 0.40429688 C-17.10193997 0.27510676 -19.05102886 0.13830035 -21 0 C-21 0.66 -21 1.32 -21 2 C-22.794375 2.61875 -22.794375 2.61875 -24.625 3.25 C-28.53442243 4.70385994 -31.6310344 6.55749994 -35 9 C-35.66 8.67 -36.32 8.34 -37 8 C-25.80760448 -0.98298758 -14.03216431 -4.8807528 0 0 Z " fill="#1E4F8B" transform="translate(590,93)"/>
<path d="M0 0 C8.58 0 17.16 0 26 0 C27.155 2.743125 28.31 5.48625 29.5 8.3125 C29.86544922 9.17270752 30.23089844 10.03291504 30.60742188 10.91918945 C30.89166016 11.60198975 31.17589844 12.28479004 31.46875 12.98828125 C31.90864258 14.03302612 31.90864258 14.03302612 32.35742188 15.09887695 C33 17 33 17 33 20 C32.34 20 31.68 20 31 20 C29.39644899 16.49223216 28.77963136 13.85645121 29 10 C28.34 10 27.68 10 27 10 C25.50178941 6.62902617 25 4.79557881 25 1 C16.75 1 8.5 1 0 1 C0 0.67 0 0.34 0 0 Z " fill="#174E94" transform="translate(402,66)"/>
<path d="M0 0 C4 4.5 4 4.5 4 9 C-8.87 8.505 -8.87 8.505 -22 8 C-22.66 6.68 -23.32 5.36 -24 4 C-23.34 3.01 -22.68 2.02 -22 1 C-21.67 2.32 -21.34 3.64 -21 5 C-20.01 5 -19.02 5 -18 5 C-18 5.66 -18 6.32 -18 7 C-12.06 6.67 -6.12 6.34 0 6 C0 4.02 0 2.04 0 0 Z " fill="#EE4E10" transform="translate(168,157)"/>
<path d="M0 0 C3.625 -0.1875 3.625 -0.1875 7 0 C4.66785852 1.20628008 2.50357861 2.1654738 0 3 C-0.0825 4.258125 -0.165 5.51625 -0.25 6.8125 C-0.29640625 7.52019531 -0.3428125 8.22789062 -0.390625 8.95703125 C-0.16287274 11.14265793 -0.16287274 11.14265793 1.65625 12.75 C4.55692517 14.29702676 6.48230055 14.30420355 9.75 14.1875 C10.73484375 14.16042969 11.7196875 14.13335937 12.734375 14.10546875 C13.48203125 14.07066406 14.2296875 14.03585938 15 14 C14.67 14.66 14.34 15.32 14 16 C9.00931898 17.18905487 4.51775221 17.75887611 -0.125 15.4375 C-2.37842057 12.50805326 -2.84690087 10.67437905 -3 7 C-2.55663269 3.89642881 -1.80865331 2.71297996 0 0 Z " fill="#0D468A" transform="translate(776,135)"/>
<path d="M0 0 C0.66 0 1.32 0 2 0 C2.83764268 1.95649397 3.66999059 3.91525556 4.5 5.875 C4.9640625 6.96554688 5.428125 8.05609375 5.90625 9.1796875 C7 12 7 12 7 14 C-1.91 14 -10.82 14 -20 14 C-20 13.67 -20 13.34 -20 13 C-12.08 13 -4.16 13 4 13 C2.68 10.03 1.36 7.06 0 4 C0 2.68 0 1.36 0 0 Z " fill="#113D7B" transform="translate(459,151)"/>
<path d="M0 0 C1.32 0.33 2.64 0.66 4 1 C3.67 2.32 3.34 3.64 3 5 C3.99 7.97 4.98 10.94 6 14 C13.26 14.33 20.52 14.66 28 15 C28 15.33 28 15.66 28 16 C20.08 16 12.16 16 4 16 C0.625 8.125 0.625 8.125 0.3125 4.0625 C0.21388672 2.90427734 0.21388672 2.90427734 0.11328125 1.72265625 C0.07589844 1.15417969 0.03851563 0.58570313 0 0 Z " fill="#0C4A99" transform="translate(435,148)"/>
<path d="M0 0 C0 0.33 0 0.66 0 1 C-7.26 1 -14.52 1 -22 1 C-22 1.66 -22 2.32 -22 3 C-22.61875 3.103125 -23.2375 3.20625 -23.875 3.3125 C-26.36526484 3.87525373 -26.36526484 3.87525373 -28 7 C-29.32 6.67 -30.64 6.34 -32 6 C-31 3 -31 3 -29.19921875 1.796875 C-19.63685917 -2.18868078 -10.07634849 -0.94174249 0 0 Z " fill="#0B4896" transform="translate(795,93)"/>
<path d="M0 0 C1 3 1 3 0.0390625 5.33984375 C-0.42757812 6.19707031 -0.89421875 7.05429688 -1.375 7.9375 C-3.88556491 12.58695401 -5.06692118 16.27204774 -5.31640625 21.546875 C-5.35830078 22.39121094 -5.40019531 23.23554687 -5.44335938 24.10546875 C-5.48267578 24.97816406 -5.52199219 25.85085937 -5.5625 26.75 C-5.60568359 27.63816406 -5.64886719 28.52632812 -5.69335938 29.44140625 C-5.79913615 31.62745963 -5.90122546 33.81362089 -6 36 C-6.33 36 -6.66 36 -7 36 C-8.24727523 10.83702178 -8.24727523 10.83702178 -1 1 C-0.67 0.67 -0.34 0.34 0 0 Z " fill="#0A4590" transform="translate(552,102)"/>
<path d="M0 0 C3.67255314 -0.54008134 4.92482069 -0.05063096 8.0625 2.0625 C11.73921205 5.44469507 14.6889639 9.1404746 15.2421875 14.2265625 C15.24899372 16.15272213 15.13483834 18.0785537 15 20 C14.67 20 14.34 20 14 20 C13.51891725 18.58398286 13.04021859 17.16715563 12.5625 15.75 C12.29566406 14.96109375 12.02882813 14.1721875 11.75390625 13.359375 C11.08045292 11.25178012 10.50849405 9.15246027 10 7 C9.34 7 8.68 7 8 7 C7.566875 6.38125 7.13375 5.7625 6.6875 5.125 C4.68780562 2.60686633 3.01595927 1.97814895 0 1 C0 0.67 0 0.34 0 0 Z " fill="#0D428B" transform="translate(521,95)"/>
<path d="M0 0 C0.66 0 1.32 0 2 0 C2 7.26 2 14.52 2 22 C-2.95 23.485 -2.95 23.485 -8 25 C-8.99 25.33 -9.98 25.66 -11 26 C-11 25.01 -11 24.02 -11 23 C-6.76446141 20.17630761 -4.87293746 21 1 21 C0.67 14.07 0.34 7.14 0 0 Z " fill="#1B4D88" transform="translate(751,92)"/>
<path d="M0 0 C0.66 0.33 1.32 0.66 2 1 C2 7.6 2 14.2 2 21 C0.35 21 -1.3 21 -3 21 C-2.01 20.67 -1.02 20.34 0 20 C0 14.06 0 8.12 0 2 C-0.99 1.67 -1.98 1.34 -3 1 C-2.01 0.67 -1.02 0.34 0 0 Z " fill="#0A4F9D" transform="translate(750,92)"/>
<path d="M0 0 C2.0625 0.25 2.0625 0.25 4 1 C4.33 1.66 4.66 2.32 5 3 C4.67 3.99 4.34 4.98 4 6 C3.27530518 5.84152588 2.55061035 5.68305176 1.80395508 5.51977539 C-0.78951662 5.03901777 -3.2319784 4.80242678 -5.86328125 4.68359375 C-6.74951172 4.64169922 -7.63574219 4.59980469 -8.54882812 4.55664062 C-9.46083984 4.51732422 -10.37285156 4.47800781 -11.3125 4.4375 C-12.70952148 4.37272461 -12.70952148 4.37272461 -14.13476562 4.30664062 C-16.42304454 4.20102775 -18.71142372 4.09892248 -21 4 C-21 3.67 -21 3.34 -21 3 C-20.15236084 2.970271 -20.15236084 2.970271 -19.28759766 2.93994141 C-16.73292003 2.84481764 -14.17907459 2.73508942 -11.625 2.625 C-10.29082031 2.57859375 -10.29082031 2.57859375 -8.9296875 2.53125 C-8.07890625 2.49257812 -7.228125 2.45390625 -6.3515625 2.4140625 C-5.17327881 2.36693115 -5.17327881 2.36693115 -3.97119141 2.31884766 C-1.76997061 2.1600535 -1.76997061 2.1600535 0 0 Z " fill="#E96523" transform="translate(137,82)"/>
<path d="M0 0 C3.89276894 3.63107019 5.77464935 7.61547224 6.12890625 12.93603516 C6.25700922 17.62780625 6.15367717 22.3100005 6 27 C5.34 27 4.68 27 4 27 C4 20.73 4 14.46 4 8 C3.34 8 2.68 8 2 8 C0.23537317 4.91190305 0 3.76687864 0 0 Z " fill="#E05D20" transform="translate(163,79)"/>
<path d="M0 0 C7.39644129 0.23480766 12.43704761 1.97805355 18 7 C19.25390625 9.19921875 19.25390625 9.19921875 20 11 C16.66666667 9.33333333 13.33333333 7.66666667 10 6 C10 5.34 10 4.68 10 4 C9.36191406 3.87882812 8.72382813 3.75765625 8.06640625 3.6328125 C7.24011719 3.46523437 6.41382813 3.29765625 5.5625 3.125 C4.73878906 2.96257812 3.91507813 2.80015625 3.06640625 2.6328125 C2.38449219 2.42398438 1.70257813 2.21515625 1 2 C0.67 1.34 0.34 0.68 0 0 Z " fill="#EB5716" transform="translate(143,68)"/>
<path d="M0 0 C3 2 3 2 3.72265625 3.91796875 C4.25268913 7.45761363 4.58429719 9.93234733 2.82421875 13.1484375 C1.30313454 14.99789472 -0.07430073 16.57406554 -2 18 C-2.99 18 -3.98 18 -5 18 C-5 17.34 -5 16.68 -5 16 C-4.34 16 -3.68 16 -3 16 C-3 15.01 -3 14.02 -3 13 C-1.35 12.67 0.3 12.34 2 12 C1.85831863 10.56208484 1.71148957 9.1246763 1.5625 7.6875 C1.48128906 6.88699219 1.40007812 6.08648437 1.31640625 5.26171875 C1.04734307 2.83912821 1.04734307 2.83912821 0 0 Z " fill="#E25E23" transform="translate(199,69)"/>
<path d="M0 0 C0.99 0 1.98 0 3 0 C3 1.32 3 2.64 3 4 C3.94875 4.2475 4.8975 4.495 5.875 4.75 C9 6 9 6 10.375 8.125 C10.58125 8.74375 10.7875 9.3625 11 10 C5.40717158 8.63589551 2.08806189 5.84616474 -2 2 C-1.34 1.34 -0.68 0.68 0 0 Z " fill="#EA5F22" transform="translate(219,155)"/>
<path d="M0 0 C1.32 0.33 2.64 0.66 4 1 C3.34 1 2.68 1 2 1 C2.33 4.63 2.66 8.26 3 12 C3.66 12 4.32 12 5 12 C5.33 14.31 5.66 16.62 6 19 C1.85250621 14.4575068 0.13000801 8.47015213 -0.1875 2.4375 C-0.125625 1.633125 -0.06375 0.82875 0 0 Z " fill="#EE611F" transform="translate(290,131)"/>
<path d="M0 0 C0.66 0 1.32 0 2 0 C1.34 2.97 0.68 5.94 0 9 C1.98 9 3.96 9 6 9 C5.67 9.66 5.34 10.32 5 11 C2.69 11 0.38 11 -2 11 C-3.13643966 7.59068103 -2.86747764 6.99664544 -1.5625 3.8125 C-1.13130859 2.73935547 -1.13130859 2.73935547 -0.69140625 1.64453125 C-0.46324219 1.10183594 -0.23507812 0.55914062 0 0 Z " fill="#0B4A8C" transform="translate(404,118)"/>
<path d="M0 0 C0.99 0.99 1.98 1.98 3 3 C2.67 3.66 2.34 4.32 2 5 C1.34 4.67 0.68 4.34 0 4 C-0.309375 4.61875 -0.61875 5.2375 -0.9375 5.875 C-1.625 7.25 -2.3125 8.625 -3 10 C-3.66 10 -4.32 10 -5 10 C-5.33 11.98 -5.66 13.96 -6 16 C-6.66 16 -7.32 16 -8 16 C-7.60446947 14.3489597 -7.18286103 12.7041485 -6.75 11.0625 C-6.51796875 10.14597656 -6.2859375 9.22945312 -6.046875 8.28515625 C-5 6 -5 6 -2.890625 5.18359375 C-2.26671875 5.12300781 -1.6428125 5.06242187 -1 5 C-0.67 3.35 -0.34 1.7 0 0 Z " fill="#0E5094" transform="translate(388,106)"/>
<path d="M0 0 C5.94 0.33 11.88 0.66 18 1 C14.21478269 2.89260865 12.99131446 3.25442753 9 3.1875 C8.154375 3.18105469 7.30875 3.17460937 6.4375 3.16796875 C4.16747523 3.01154076 2.18038396 2.63089814 0 2 C0 1.34 0 0.68 0 0 Z " fill="#E66427" transform="translate(231,164)"/>
<path d="M0 0 C4.95 0 9.9 0 15 0 C18.125 6.625 18.125 6.625 17 10 C13 3.25 13 3.25 13 1 C8.71 1 4.42 1 0 1 C0 0.67 0 0.34 0 0 Z " fill="#E2642B" transform="translate(117,132)"/>
<path d="M0 0 C-2.9283127 1.95220847 -5.86314325 3.5335065 -9 5.125 C-10.5778125 5.93324219 -10.5778125 5.93324219 -12.1875 6.7578125 C-15 8 -15 8 -18 8 C-12.73855392 3.25186573 -7.46981567 -0.67907415 0 0 Z " fill="#11478A" transform="translate(750,92)"/>
<path d="M0 0 C0.66 0.33 1.32 0.66 2 1 C2.0809313 3.60478883 2.14045434 6.20706653 2.1875 8.8125 C2.22520508 9.91948242 2.22520508 9.91948242 2.26367188 11.04882812 C2.33834499 16.54974762 2.33834499 16.54974762 0.48828125 19.01171875 C-0.24841797 19.50091797 -0.24841797 19.50091797 -1 20 C-2 18 -2 18 -1.0625 15.0625 C0.49790973 10.1194571 0.16692547 5.12832145 0 0 Z " fill="#E76627" transform="translate(261,122)"/>
<path d="M0 0 C0.33 0 0.66 0 1 0 C1 1.65 1 3.3 1 5 C6.61 5 12.22 5 18 5 C18 5.33 18 5.66 18 6 C11.4 6.33 4.8 6.66 -2 7 C-2 5.68 -2 4.36 -2 3 C-1.34 3 -0.68 3 0 3 C0 2.01 0 1.02 0 0 Z " fill="#0F4F97" transform="translate(800,158)"/>
<path d="M0 0 C0.99 0.33 1.98 0.66 3 1 C1.73427767 2.15147661 0.46222094 3.29599314 -0.8125 4.4375 C-1.52019531 5.07558594 -2.22789062 5.71367187 -2.95703125 6.37109375 C-5 8 -5 8 -8 9 C-7.8125 7.1875 -7.8125 7.1875 -7 5 C-2.82142857 2 -2.82142857 2 0 2 C0 1.34 0 0.68 0 0 Z " fill="#E36021" transform="translate(355,153)"/>
<path d="M0 0 C2.475 0.99 2.475 0.99 5 2 C5 2.66 5 3.32 5 4 C4.06027344 4.30744141 4.06027344 4.30744141 3.1015625 4.62109375 C2.28429687 4.89050781 1.46703125 5.15992187 0.625 5.4375 C-0.18710937 5.70433594 -0.99921875 5.97117187 -1.8359375 6.24609375 C-4.01031799 6.95179729 -4.01031799 6.95179729 -6 8 C-5.65120368 4.74456771 -4.97866739 3.98126893 -2.4375 1.75 C-1.633125 1.1725 -0.82875 0.595 0 0 Z " fill="#EB5D1A" transform="translate(322,106)"/>
<path d="M0 0 C2.72106694 2.72106694 2.60655572 4.84776311 3.125 8.625 C3.29257812 9.81351563 3.46015625 11.00203125 3.6328125 12.2265625 C3.75398437 13.14179687 3.87515625 14.05703125 4 15 C3.34 15 2.68 15 2 15 C0.2520497 9.75614911 -0.19392201 5.52677733 0 0 Z " fill="#0E3F82" transform="translate(697,106)"/>
<path d="M0 0 C-0.83144531 0.39638672 -0.83144531 0.39638672 -1.6796875 0.80078125 C-5.17018757 2.60479391 -8.44032166 4.75373494 -11.7578125 6.85546875 C-12.86769531 7.42201172 -12.86769531 7.42201172 -14 8 C-14.66 7.67 -15.32 7.34 -16 7 C-14.70982586 6.01886757 -13.41780894 5.04015801 -12.125 4.0625 C-11.04605469 3.24458984 -11.04605469 3.24458984 -9.9453125 2.41015625 C-6.48291757 -0.09973245 -4.24354529 -0.09225098 0 0 Z " fill="#114489" transform="translate(569,94)"/>
<path d="M0 0 C3.18703359 1.5935168 3.89022912 4.7881925 5 8 C5.39764263 9.98821313 5.75455166 11.98732362 6 14 C2.30250259 9.92000285 0.7410336 6.13604912 -1 1 C-0.67 0.67 -0.34 0.34 0 0 Z " fill="#0C4583" transform="translate(546,141)"/>
<path d="M0 0 C1.33804687 0.04060547 1.33804687 0.04060547 2.703125 0.08203125 C3.37859375 0.11683594 4.0540625 0.15164062 4.75 0.1875 C4.75 0.5175 4.75 0.8475 4.75 1.1875 C2.9246875 1.373125 2.9246875 1.373125 1.0625 1.5625 C-2.31143907 1.99321563 -5.22693988 2.53855812 -8.25 4.1875 C-8.58 5.1775 -8.91 6.1675 -9.25 7.1875 C-9.91 7.1875 -10.57 7.1875 -11.25 7.1875 C-8.97223512 1.68290154 -5.91789024 -0.23360093 0 0 Z " fill="#063D93" transform="translate(503.25,109.8125)"/>
<path d="M0 0 C1.22589844 0.01353516 1.22589844 0.01353516 2.4765625 0.02734375 C3.41628906 0.04474609 3.41628906 0.04474609 4.375 0.0625 C4.375 0.3925 4.375 0.7225 4.375 1.0625 C1.735 1.3925 -0.905 1.7225 -3.625 2.0625 C-2.96914811 5.67242379 -2.96914811 5.67242379 -1.625 9.0625 C-2.945 8.7325 -4.265 8.4025 -5.625 8.0625 C-5.955 5.7525 -6.285 3.4425 -6.625 1.0625 C-4.21954362 -0.14022819 -2.67503047 -0.03821472 0 0 Z " fill="#EB5D14" transform="translate(317.625,132.9375)"/>
<path d="M0 0 C1.32 0.33 2.64 0.66 4 1 C4 1.66 4 2.32 4 3 C4.99 3.33 5.98 3.66 7 4 C9.04108797 7.00791911 9.19878036 9.42195344 9 13 C7.0569134 10.7189853 6.05494523 9.38461661 5.625 6.375 C5.315625 5.199375 5.315625 5.199375 5 4 C2.52363988 2.62533375 2.52363988 2.62533375 0 2 C0 1.34 0 0.68 0 0 Z " fill="#094886" transform="translate(670,111)"/>
<path d="M0 0 C1.32 0 2.64 0 4 0 C4 0.66 4 1.32 4 2 C6.97 2 9.94 2 13 2 C13 2.33 13 2.66 13 3 C7.72 3 2.44 3 -3 3 C-2.01 2.01 -1.02 1.02 0 0 Z " fill="#0436A1" transform="translate(412,126)"/>
<path d="M0 0 C0.85659135 3.08084955 1.26941369 6.06792001 1.5625 9.25 C1.64628906 10.14203125 1.73007812 11.0340625 1.81640625 11.953125 C1.87699219 12.62859375 1.93757813 13.3040625 2 14 C1.34 13.34 0.68 12.68 0 12 C-0.99 12.495 -0.99 12.495 -2 13 C-1.85851011 11.3954444 -1.71164314 9.79136233 -1.5625 8.1875 C-1.48128906 7.29417969 -1.40007812 6.40085937 -1.31640625 5.48046875 C-1 3 -1 3 0 0 Z " fill="#EC6525" transform="translate(292,114)"/>
<path d="M0 0 C0.66 0.33 1.32 0.66 2 1 C-2.75 6.875 -2.75 6.875 -5 8 C-6.13350534 10.01669827 -6.13350534 10.01669827 -7 12 C-7.66 12 -8.32 12 -9 12 C-7.54718935 6.67302761 -3.91888622 3.63597198 0 0 Z " fill="#E55D22" transform="translate(222,97)"/>
<path d="M0 0 C4 4.5 4 4.5 4 9 C2.02 8.34 0.04 7.68 -2 7 C-1.34 6.67 -0.68 6.34 0 6 C0 4.02 0 2.04 0 0 Z " fill="#E45C28" transform="translate(168,157)"/>
<path d="M0 0 C0.99 0.33 1.98 0.66 3 1 C4.89470816 1.0685495 6.7916834 1.08480372 8.6875 1.0625 C9.68136719 1.05347656 10.67523437 1.04445312 11.69921875 1.03515625 C12.45847656 1.02355469 13.21773437 1.01195312 14 1 C13.67 1.66 13.34 2.32 13 3 C10.6015625 3.51953125 10.6015625 3.51953125 7.625 3.8125 C6.64789062 3.92207031 5.67078125 4.03164062 4.6640625 4.14453125 C2 4 2 4 0.1484375 2.51171875 C-0.42003906 1.76341797 -0.42003906 1.76341797 -1 1 C-0.67 0.67 -0.34 0.34 0 0 Z " fill="#1C498F" transform="translate(777,148)"/>
<path d="M0 0 C0.33 0.66 0.66 1.32 1 2 C0.70351563 2.57234375 0.40703125 3.1446875 0.1015625 3.734375 C-1.29880632 6.61456619 -1.41722918 9.06418083 -1.625 12.25 C-1.69976563 13.32765625 -1.77453125 14.4053125 -1.8515625 15.515625 C-1.90054688 16.33546875 -1.94953125 17.1553125 -2 18 C-2.33 18 -2.66 18 -3 18 C-3.0809723 15.56183415 -3.14046972 13.12635616 -3.1875 10.6875 C-3.21263672 9.99720703 -3.23777344 9.30691406 -3.26367188 8.59570312 C-3.33834499 3.44325817 -3.33834499 3.44325817 -1.48828125 1.01953125 C-0.99714844 0.68308594 -0.50601563 0.34664062 0 0 Z " fill="#08408B" transform="translate(757,130)"/>
<path d="M0 0 C0.66 0.33 1.32 0.66 2 1 C0.68 3.64 -0.64 6.28 -2 9 C-2.99 9 -3.98 9 -5 9 C-3.90931332 5.22454612 -3.0916909 2.52956528 0 0 Z " fill="#0C4887" transform="translate(737,119)"/>
<path d="M0 0 C1 3 1 3 0.29296875 5.0078125 C-0.25423828 6.05582031 -0.25423828 6.05582031 -0.8125 7.125 C-1.16957031 7.82882813 -1.52664062 8.53265625 -1.89453125 9.2578125 C-3 11 -3 11 -5 12 C-5 10.35 -5 8.7 -5 7 C-4.34 7 -3.68 7 -3 7 C-3 6.34 -3 5.68 -3 5 C-2.34 5 -1.68 5 -1 5 C-0.67 3.35 -0.34 1.7 0 0 Z " fill="#E25E21" transform="translate(167,108)"/>
<path d="M0 0 C5.29441695 -0.50423019 7.81413519 0.81076967 12 4 C8.35839192 5.21386936 7.66834531 4.6674695 4.3125 3.0625 C3.10013672 2.49208984 3.10013672 2.49208984 1.86328125 1.91015625 C1.24839844 1.60980469 0.63351562 1.30945313 0 1 C0 0.67 0 0.34 0 0 Z " fill="#0D488F" transform="translate(797,94)"/>
<path d="M0 0 C0.33 0 0.66 0 1 0 C1.34833144 4.87664009 0.41685712 7.77050005 -2 12 C-2.66 12 -3.32 12 -4 12 C-3.52309796 10.37433394 -3.04340334 8.74948689 -2.5625 7.125 C-2.29566406 6.22007812 -2.02882813 5.31515625 -1.75390625 4.3828125 C-1 2 -1 2 0 0 Z " fill="#1A4883" transform="translate(367,153)"/>
<path d="M0 0 C2.97069541 2.54631035 4.4775751 5.42230149 6 9 C5.67 9.66 5.34 10.32 5 11 C4.67 10.01 4.34 9.02 4 8 C3.01 7.67 2.02 7.34 1 7 C0.67 4.69 0.34 2.38 0 0 Z " fill="#E15F29" transform="translate(155,133)"/>
<path d="M0 0 C2.09785412 2.55390936 3.78252874 4.62919544 4 8 C2.5625 9.75 2.5625 9.75 1 11 C-0.28317892 7.15046324 -0.06643637 4.05261865 0 0 Z " fill="#F55B04" transform="translate(292,132)"/>
<path d="M0 0 C0.66 0 1.32 0 2 0 C0.60364382 3.37452744 -0.8606353 5.11638118 -4 7 C-6.75 7.6875 -6.75 7.6875 -9 8 C-7.6875 6.5 -7.6875 6.5 -6 5 C-5.01 5 -4.02 5 -3 5 C-2.67 4.01 -2.34 3.02 -2 2 C-1.34 2 -0.68 2 0 2 C0 1.34 0 0.68 0 0 Z " fill="#0E4385" transform="translate(596,157)"/>
<path d="M0 0 C2.44839588 3.67259383 4 6.54648201 4 11 C3.34 11 2.68 11 2 11 C1.01 7.7 0.02 4.4 -1 1 C-0.67 0.67 -0.34 0.34 0 0 Z " fill="#0E3F84" transform="translate(449,122)"/>
<path d="M0 0 C0.99 0.33 1.98 0.66 3 1 C-0.12621626 4.39417765 -2.56541027 6.6062718 -7 8 C-5.51218185 4.21282653 -3.38011591 2.22592999 0 0 Z " fill="#DF5D1E" transform="translate(306,96)"/>
<path d="M0 0 C2.475 0.99 2.475 0.99 5 2 C4.34 3.98 3.68 5.96 3 8 C2.67 8 2.34 8 2 8 C1.34 5.36 0.68 2.72 0 0 Z M1 8 C1.66 8.66 2.32 9.32 3 10 C2.34 10 1.68 10 1 10 C1 9.34 1 8.68 1 8 Z " fill="#F85A07" transform="translate(338,113)"/>
<path d="M0 0 C1.73662334 3.22515763 2.8905928 6.51329166 4 10 C1 9 1 9 -0.25 6.6875 C-1.0275526 3.90126985 -0.98726527 2.66561622 0 0 Z " fill="#0D458A" transform="translate(456,140)"/>
<path d="M0 0 C1.32 0.33 2.64 0.66 4 1 C3.34 1 2.68 1 2 1 C2.66 2.98 3.32 4.96 4 7 C3.01 7 2.02 7 1 7 C0.67 4.69 0.34 2.38 0 0 Z " fill="#E85E1B" transform="translate(151,126)"/>
<path d="M0 0 C1.32 0 2.64 0 4 0 C5.4606285 2.64738916 6 3.89448334 6 7 C5.34 7 4.68 7 4 7 C2.50475822 4.7272325 1.21600285 2.4320057 0 0 Z " fill="#08468A" transform="translate(793,112)"/>
<path d="M0 0 C4.875 1.875 4.875 1.875 6 3 C6.66 2.34 7.32 1.68 8 1 C8 2.32 8 3.64 8 5 C7.01 5.33 6.02 5.66 5 6 C4.34 5.01 3.68 4.02 3 3 C2.01 2.67 1.02 2.34 0 2 C0 1.34 0 0.68 0 0 Z " fill="#DF6124" transform="translate(254,95)"/>
<path d="M0 0 C3.26954202 0.56371414 4.82575883 1.49962266 7 4 C4.36 4 1.72 4 -1 4 C-0.67 2.68 -0.34 1.36 0 0 Z " fill="#EB611C" transform="translate(187,84)"/>
<path d="M0 0 C2.64 0.33 5.28 0.66 8 1 C8 1.33 8 1.66 8 2 C6.02 2.33 4.04 2.66 2 3 C1.67 4.32 1.34 5.64 1 7 C0.34 6.67 -0.32 6.34 -1 6 C-0.67 4.02 -0.34 2.04 0 0 Z " fill="#F75C0F" transform="translate(114,83)"/>
<path d="" fill="#191933" transform="translate(0,0)"/>
<path d="M0 0 C2 1 2 1 2 1 Z " fill="#CC3333" transform="translate(117,87)"/>
<path d="" fill="#005555" transform="translate(0,0)"/>
<path d="" fill="#008080" transform="translate(0,0)"/>
<path d="" fill="#FF0000" transform="translate(0,0)"/>
<path d="" fill="#000000" transform="translate(0,0)"/>
</svg>
